<svg width="48" height="48" viewBox="0 0 48 48" fill="none" xmlns="http://www.w3.org/2000/svg">
<path d="M37.5999 0H10.4001C4.6563 0 0 4.6563 0 10.4001V37.5999C0 43.3437 4.6563 48 10.4001 48H37.5999C43.3437 48 48 43.3437 48 37.5999V10.4001C48 4.6563 43.3437 0 37.5999 0Z" fill="#FF533D"/>
<path d="M32.4375 37.9999C31.2175 37.9999 29.5038 37.5587 26.9375 36.1249C23.8169 34.3749 21.4032 32.7593 18.2994 29.6637C15.3069 26.673 13.8507 24.7368 11.8125 21.028C9.51003 16.8405 9.90253 14.6455 10.3413 13.7074C10.8638 12.5862 11.635 11.9155 12.6319 11.2499C13.1981 10.8789 13.7973 10.5609 14.4219 10.2999C14.4844 10.273 14.5425 10.2474 14.5944 10.2243C14.9038 10.0849 15.3725 9.87428 15.9663 10.0993C16.3625 10.248 16.7163 10.5524 17.27 11.0993C18.4057 12.2193 19.9575 14.7137 20.53 15.9387C20.9144 16.7643 21.1688 17.3093 21.1694 17.9205C21.1694 18.6362 20.8094 19.188 20.3725 19.7837C20.2907 19.8955 20.2094 20.0024 20.1307 20.1062C19.655 20.7312 19.5507 20.9118 19.6194 21.2343C19.7588 21.8824 20.7982 23.8118 22.5063 25.5162C24.2144 27.2205 26.0882 28.1943 26.7388 28.333C27.075 28.4049 27.2594 28.2962 27.9044 27.8037C27.9969 27.733 28.0919 27.6599 28.1913 27.5868C28.8575 27.0912 29.3838 26.7405 30.0825 26.7405H30.0863C30.6944 26.7405 31.215 27.0043 32.0775 27.4393C33.2025 28.0068 35.7719 29.5387 36.8988 30.6755C37.4469 31.228 37.7525 31.5805 37.9019 31.9762C38.1269 32.5718 37.915 33.0387 37.7769 33.3512C37.7538 33.403 37.7282 33.4599 37.7013 33.523C37.4382 34.1465 37.1183 34.7444 36.7457 35.3093C36.0813 36.303 35.4082 37.0724 34.2844 37.5955C33.7074 37.8685 33.0758 38.0068 32.4375 37.9999Z" fill="white"/>
</svg>
