<svg xmlns="http://www.w3.org/2000/svg" viewBox="0 0 90.08 48.19"><defs><style>.cls-1{fill:#ebb13d;}.cls-2{fill:#3b3b3b;}.cls-3{fill:#242424;}.cls-4{fill:#65bed6;}.cls-5{fill:#78e2ff;}.cls-6{fill:#4c76a1;}.cls-7{fill:#3b5c7d;}.cls-8{fill:#474747;}.cls-9{fill:#454545;}.cls-10{fill:#2b2b2b;}.cls-11{fill:gray;}.cls-12{fill:#666;}.cls-13{fill:#bf7632;}.cls-14{opacity:0.1;}.cls-15{fill:#fff;}.cls-16{fill:#223447;}.cls-17{fill:#fde3a7;}.cls-18{fill:#0e2338;}.cls-19{fill:#6ba6e3;}.cls-20{fill:#e8e8e8;}.cls-21{fill:#303030;}.cls-22{fill:#ed3636;}.cls-23{fill:#5c5c5c;}.cls-24{fill:#363636;}.cls-25{fill:#1a1a1a;}</style></defs><g id="Layer_2" data-name="Layer 2"><g id="Layer_4" data-name="Layer 4"><polygon class="cls-1" points="50.96 36.09 0 36.09 0 0 0 0 50.96 0 50.96 0 50.96 36.09"/><path class="cls-2" d="M53.86,34.6h-2.2c-.39,0-.7-.5-.7-1.11v-13c0-.61.31-1.11.7-1.11h2.2c.39,0,.71.5.71,1.11V33.49C54.57,34.1,54.25,34.6,53.86,34.6Z"/><path class="cls-3" d="M52.76,34.6h-1.1c-.39,0-.7-.5-.7-1.11v-13c0-.61.31-1.11.7-1.11h1.1Z"/><path class="cls-4" d="M71.24,22.2s.89,1.86,7.8,2c1.16-.06,1.41-.75,1.25-1.54l-4.39-9.4c-.13-.59-6.45-.09-6.45-.09C68.75,13.16,70.54,22.2,71.24,22.2Z"/><polygon class="cls-5" points="78.46 22.8 77.04 22.8 73.12 13.01 74.55 13.01 78.46 22.8"/><path class="cls-6" d="M86.75,43.19H77.42A1.44,1.44,0,0,1,76,42.13l-1.35-4.85a1.46,1.46,0,0,0-1.4-1.07l-16.14,0a2.56,2.56,0,0,1-2.56-2.56V15a4,4,0,0,1,4-4.05H75.23c.52,0,.94,1.79.94,2.31l-3.11,0c-4.3,0-3.14,1.64-2.73,3.55l1.12,4.15c.15.56.19,1.19.56,1.49s.81.21,1.66.2l6.83,0c.46,0,4.23.29,7.13.77a1.06,1.06,0,0,1,.88,1l.89,16.05A2.65,2.65,0,0,1,86.75,43.19Z"/><path class="cls-7" d="M86.75,43.19H77.42A1.44,1.44,0,0,1,76,42.13l-1.35-4.85a1.46,1.46,0,0,0-1.4-1.07l-16.14,0a2.56,2.56,0,0,1-2.56-2.56V30.19l34.28.4.55,9.8A2.65,2.65,0,0,1,86.75,43.19Z"/><path class="cls-8" d="M88.91,42,81,42a1.05,1.05,0,0,1-1.16-.88l0-3.37c0-.49.52-.87,1.16-.87l7.93,0c.64,0,1.16.4,1.15.88v3.38C90.07,41.65,89.55,42,88.91,42Z"/><path class="cls-4" d="M60.9,22.41h7.6a1.27,1.27,0,0,0,1.25-1.54l-1.4-6.49a1.28,1.28,0,0,0-1.25-1H60.9a1.27,1.27,0,0,0-1.27,1.27v6.49A1.27,1.27,0,0,0,60.9,22.41Z"/><path class="cls-5" d="M69.49,21.94a1.3,1.3,0,0,0,.26-1.07l-1.4-6.49a1.28,1.28,0,0,0-1.25-1H60.9a1.27,1.27,0,0,0-1,.48Z"/><path class="cls-9" d="M4.55,36.07l69.9,0,1.27,5.49H4.55c-1,0-1.1-.49-1.12-1.12V37.19A1.12,1.12,0,0,1,4.55,36.07Z"/><path class="cls-10" d="M75.18,42.76a5.41,5.41,0,1,1-5.41-5.4A5.41,5.41,0,0,1,75.18,42.76Z"/><path class="cls-11" d="M73.5,42.76A3.73,3.73,0,1,1,69.77,39,3.72,3.72,0,0,1,73.5,42.76Z"/><path class="cls-12" d="M72.22,42.76a2.44,2.44,0,1,1-2.45-2.44A2.45,2.45,0,0,1,72.22,42.76Z"/><path class="cls-12" d="M62.13,42.22l2.92-6.36a.83.83,0,0,1,.76-.5h9a.83.83,0,0,1,.77.51l1.84,6.89h-.94a.84.84,0,0,1-.78-.54l-1.06-4.8a.83.83,0,0,0-.78-.55l-7.39.06a.83.83,0,0,0-.76.51l-1.85,4.28a.85.85,0,0,1-.77.5Z"/><path class="cls-10" d="M23.08,42.78a5.4,5.4,0,1,1-5.4-5.4A5.41,5.41,0,0,1,23.08,42.78Z"/><path class="cls-11" d="M21.39,42.78a3.72,3.72,0,1,1-3.71-3.72A3.71,3.71,0,0,1,21.39,42.78Z"/><path class="cls-12" d="M20.12,42.78a2.44,2.44,0,1,1-2.44-2.44A2.44,2.44,0,0,1,20.12,42.78Z"/><path class="cls-10" d="M39.59,42.78a5.41,5.41,0,1,1-5.4-5.4A5.41,5.41,0,0,1,39.59,42.78Z"/><path class="cls-11" d="M37.9,42.78a3.72,3.72,0,1,1-3.71-3.72A3.71,3.71,0,0,1,37.9,42.78Z"/><path class="cls-12" d="M36.62,42.78a2.44,2.44,0,1,1-2.43-2.44A2.43,2.43,0,0,1,36.62,42.78Z"/><rect class="cls-13" x="2.34" y="17.1" width="45.54" height="11.63"/><g class="cls-14"><polygon points="50.96 36.09 0 36.09 0 0 0 0 50.96 36.09"/></g><polygon class="cls-15" points="3.92 0.81 49.62 0.81 49.62 31.33 48.91 1.52 3.92 0.81"/><path class="cls-12" d="M26.54,42.22l2.92-6.36a.83.83,0,0,1,.76-.5h9a.83.83,0,0,1,.77.51l1.84,6.89h-.94a.82.82,0,0,1-.77-.54l-1.07-4.8a.83.83,0,0,0-.78-.55l-7.39.06a.83.83,0,0,0-.76.51l-1.85,4.28a.84.84,0,0,1-.77.5Z"/><path class="cls-12" d="M10,42.22,13,35.86a.83.83,0,0,1,.76-.5h9a.83.83,0,0,1,.77.51l1.84,6.89h-.93a.82.82,0,0,1-.78-.54l-1.07-4.8a.82.82,0,0,0-.78-.55l-7.39.06a.83.83,0,0,0-.76.51l-1.85,4.28a.84.84,0,0,1-.77.5Z"/><path class="cls-16" d="M83.25,35.57H82.07a.46.46,0,0,1-.47-.44V28.89a.45.45,0,0,1,.47-.43h1.18a.45.45,0,0,1,.46.43v6.24A.45.45,0,0,1,83.25,35.57Z"/><rect class="cls-17" x="82.02" y="28.99" width="1.69" height="6.05" rx="0.37"/><path class="cls-18" d="M64.1,25H62.35a.56.56,0,0,1-.61-.49h0a.56.56,0,0,1,.61-.49H64.1a.55.55,0,0,1,.6.49h0A.55.55,0,0,1,64.1,25Z"/><path class="cls-19" d="M58.77,11.23H74.64a.71.71,0,0,1,.63.4l.52,1.14L75,11.85a.66.66,0,0,0-.51-.24Z"/><path class="cls-19" d="M68.41,23.21a72.55,72.55,0,0,1,19.08.69.46.46,0,0,1,.37.37l.42,2.2-.8-1.81a.51.51,0,0,0-.32-.27C86,24.08,79.77,22.68,68.41,23.21Z"/><path class="cls-19" d="M72.06,27.14a40,40,0,0,1,12.07.5.32.32,0,0,1,.23.28l.17,2.52-.41-2.24a.29.29,0,0,0-.2-.19C83.16,27.78,79.25,26.75,72.06,27.14Z"/><path class="cls-20" d="M89.18,36.31H86.47a.59.59,0,0,1-.6-.59V28.34a.6.6,0,0,1,.6-.6H88.7Z"/><path class="cls-21" d="M89.13,35.62H86.9a.49.49,0,0,1-.49-.5V28.93a.49.49,0,0,1,.49-.49h1.84Z"/><rect class="cls-22" x="2.14" y="37.19" width="1.29" height="3.61"/><path class="cls-10" d="M69.11,23.51h-1c-.26,0-.47-.31-.47-.7V17.4c0-.38.21-.7.47-.7h1c.26,0,.47.32.47.7v5.41C69.58,23.2,69.37,23.51,69.11,23.51Z"/><path class="cls-23" d="M69.13,22.92h-.85c-.22,0-.39-.26-.39-.58V17.87c0-.32.17-.57.39-.57h.85c.21,0,.38.25.38.57v4.47C69.51,22.66,69.34,22.92,69.13,22.92Z"/><path class="cls-24" d="M69.29,21.82c0,.39-.13.71-.29.71s-.3-.32-.3-.71.13-.71.3-.71S69.29,21.42,69.29,21.82Z"/><rect class="cls-25" x="69" y="21.59" width="2.03" height="0.5"/><path class="cls-25" d="M71.43,21.82c0,.6-.2,1.1-.46,1.1s-.46-.5-.46-1.1.21-1.11.46-1.11S71.43,21.21,71.43,21.82Z"/></g></g></svg>