<svg xmlns="http://www.w3.org/2000/svg" viewBox="0 0 70 69.8"><defs><style>.cls-1{isolation:isolate;}.cls-2,.cls-3{fill:#ffe1c3;}.cls-13,.cls-3{mix-blend-mode:screen;}.cls-13,.cls-3,.cls-9{opacity:0.2;}.cls-4{fill:#cc5525;}.cls-5{fill:#ffdcb9;}.cls-6{fill:#e6e6e6;}.cls-7{fill:#f0f0f0;}.cls-8{fill:#007896;}.cls-9{fill:#ffc8af;mix-blend-mode:multiply;}.cls-10{fill:#0082a0;}.cls-11{fill:#783c00;}.cls-12,.cls-13{fill:#5a5a5a;}.cls-14{fill:#464646;}</style></defs><g class="cls-1"><g id="Layer_2" data-name="Layer 2"><g id="Layer_1-2" data-name="Layer 1"><path class="cls-2" d="M35,35.6c3,0,8.67-3.51,10.52-13S43,7.15,35,7.15s-12.38,6-10.53,15.49S32,35.6,35,35.6Z"/><path class="cls-2" d="M24.46,22.64c-.1-.56-.19-1.1-.25-1.63-.48-.67-1-1.11-1.6-1-1.11.3-1.41,1.22-.24,4s2.09,3.81,2.78,3.51a1.29,1.29,0,0,0,.5-.8A23.94,23.94,0,0,1,24.46,22.64Z"/><path class="cls-2" d="M45.49,22.64c.11-.56.19-1.1.26-1.63.47-.67,1-1.11,1.59-1,1.12.3,1.41,1.22.25,4s-2.1,3.81-2.78,3.51a1.25,1.25,0,0,1-.5-.8A24.89,24.89,0,0,0,45.49,22.64Z"/><path class="cls-3" d="M45.51,22.64C47.36,13.19,43,7.15,35,7.15V35.6C38,35.6,43.66,32.09,45.51,22.64Z"/><path class="cls-4" d="M35,4.46a15.82,15.82,0,0,1,6.26,1.23,3.12,3.12,0,0,0,.26-1.23C41.51,2,38.59,0,35,0s-6.53,2-6.53,4.46a3.12,3.12,0,0,0,.26,1.23A15.87,15.87,0,0,1,35,4.46Z"/><path class="cls-5" d="M41.07,41.34C39.71,44,35,45.53,35,45.53S30.26,44,28.9,41.34A7.74,7.74,0,0,0,30.19,35a11.14,11.14,0,0,0-.53-2h0A8.45,8.45,0,0,0,35,35.6,8.43,8.43,0,0,0,40.29,33h0a11.14,11.14,0,0,0-.53,2A7.74,7.74,0,0,0,41.07,41.34Z"/><polygon class="cls-6" points="24.75 42.7 32.78 59.56 37.84 59.56 44.6 42.57 43.16 42.27 34.98 44.22 26.81 42.27 24.75 42.7"/><polygon class="cls-7" points="30.31 37.9 29.14 38.13 26.61 42.02 32.6 49.43 34.98 44.22 30.09 39.02 30.31 37.9"/><path class="cls-8" d="M34,59.56H13.51s2.74-13.46,3.94-14.71l.05-.05c1.17-.92,9.31-2.53,9.31-2.53Z"/><polygon class="cls-7" points="39.66 37.9 40.83 38.13 43.36 42.02 37.37 49.43 34.98 44.22 39.88 39.02 39.66 37.9"/><path class="cls-8" d="M43.16,42.27s8.14,1.61,9.31,2.53,4,14.76,4,14.76H36Z"/><path class="cls-9" d="M40.31,33a11.14,11.14,0,0,0-.53,2A8,8,0,0,1,35,37.1a8,8,0,0,1-4.8-2.1,11.14,11.14,0,0,0-.53-2h0A8.45,8.45,0,0,0,35,35.6,8.43,8.43,0,0,0,40.29,33Z"/><path class="cls-4" d="M34.87,4c-11.6,0-12.5,11.38-12,15.48a9.43,9.43,0,0,0,1.88,4s.43-5.54,4-7.13,8.85-.73,11.39-4.57c3,4.55,4.32,6.46,4.9,11.7C48.43,20,51.06,4.1,34.87,4Z"/><path class="cls-10" d="M17.45,44.85V59.56H13.51S16.25,46.1,17.45,44.85Z"/><path class="cls-10" d="M52.52,44.85V59.56h3.95S53.72,46.1,52.52,44.85Z"/><path class="cls-10" d="M38.94,61.86c0,3.44,4.32,6.23,9.65,6.23s9.65-2.79,9.65-6.23-4.32-6.22-9.65-6.22S38.94,58.42,38.94,61.86Z"/><path class="cls-2" d="M50.16,64.15a.76.76,0,0,1,0-.15c0-2.45,2.73-4.43,6.09-4.43s6.1,2,6.1,4.43c0,0,0,.1,0,.15Z"/><path class="cls-10" d="M28.71,61.86c0,3.44-4.32,6.23-9.65,6.23S9.41,65.3,9.41,61.86s4.33-6.22,9.65-6.22S28.71,58.42,28.71,61.86Z"/><rect class="cls-8" x="20.92" y="32.9" width="27.17" height="36.1"/><rect class="cls-11" y="64.15" width="70" height="5.64"/><rect class="cls-12" x="10.16" y="26.56" width="51.33" height="33.01" rx="2"/><path class="cls-13" d="M61.48,59.57H35.82v-33H59.48a2,2,0,0,1,2,2Z"/><rect class="cls-14" x="33.43" y="46.94" width="4.79" height="17.14"/><rect class="cls-14" x="30.83" y="39.79" width="9.98" height="8.11"/><path class="cls-14" d="M43.74,64.24H27.9v-.38a2,2,0,0,1,2-2H41.74a2,2,0,0,1,2,2Z"/><path class="cls-2" d="M17.49,64.15a.76.76,0,0,0,0-.15c0-2.45-2.72-4.43-6.09-4.43s-6.1,2-6.1,4.43a.77.77,0,0,0,0,.15Z"/></g></g></g></svg>