<svg xmlns="http://www.w3.org/2000/svg" viewBox="0 0 57.44 70"><defs><style>.cls-1{isolation:isolate;}.cls-2,.cls-3{fill:#ffe1c3;}.cls-3{mix-blend-mode:screen;}.cls-3,.cls-9{opacity:0.2;}.cls-4{fill:#cc5525;}.cls-5{fill:#ffdcb9;}.cls-6{fill:#e6e6e6;}.cls-7{fill:#f0f0f0;}.cls-8{fill:#007896;}.cls-9{fill:#ffc8af;mix-blend-mode:multiply;}.cls-10{fill:#0082a0;}.cls-11{fill:#ffc800;}.cls-12{fill:#fff;}</style></defs><g class="cls-1"><g id="Layer_2" data-name="Layer 2"><g id="Layer_1-2" data-name="Layer 1"><path class="cls-2" d="M20.75,46.85c2.91,0,8.37-3.38,10.16-12.51s-2.45-15-10.16-15-11.95,5.83-10.17,15S17.83,46.85,20.75,46.85Z"/><path class="cls-2" d="M10.58,34.34c-.1-.54-.18-1.06-.25-1.58-.45-.64-1-1.07-1.53-.92-1.08.3-1.37,1.18-.24,3.86s2,3.68,2.68,3.39a1.18,1.18,0,0,0,.48-.77A24.45,24.45,0,0,1,10.58,34.34Z"/><path class="cls-2" d="M30.89,34.34c.11-.54.19-1.06.25-1.58.46-.64,1-1.07,1.54-.92,1.08.3,1.36,1.18.23,3.86s-2,3.68-2.68,3.39a1.22,1.22,0,0,1-.48-.77A23.49,23.49,0,0,0,30.89,34.34Z"/><path class="cls-3" d="M30.91,34.34c1.79-9.13-2.45-15-10.16-15V46.85C23.66,46.85,29.12,43.47,30.91,34.34Z"/><path class="cls-4" d="M20.75,16.77A15.36,15.36,0,0,1,26.8,18a3.06,3.06,0,0,0,.25-1.19c0-2.37-2.82-4.3-6.3-4.3s-6.31,1.93-6.31,4.3A3.06,3.06,0,0,0,14.69,18,15.38,15.38,0,0,1,20.75,16.77Z"/><path class="cls-5" d="M26.62,52.4c-1.31,2.59-5.87,4.05-5.87,4.05S16.18,55,14.87,52.4a7.49,7.49,0,0,0,1.25-6.12,11.28,11.28,0,0,0-.52-1.91h0a8.09,8.09,0,0,0,5.13,2.49,8.1,8.1,0,0,0,5.12-2.49h0a11.28,11.28,0,0,0-.52,1.91A7.53,7.53,0,0,0,26.62,52.4Z"/><polygon class="cls-6" points="10.86 53.72 18.61 70 23.51 70 30.03 53.59 28.64 53.3 20.75 55.18 12.85 53.3 10.86 53.72"/><polygon class="cls-7" points="16.23 49.07 15.1 49.3 12.65 53.06 18.44 60.22 20.75 55.18 16.01 50.16 16.23 49.07"/><path class="cls-8" d="M19.76,70H0S2.65,57,3.81,55.79l0,0c1.13-.9,9-2.45,9-2.45Z"/><polygon class="cls-7" points="25.26 49.07 26.39 49.3 28.84 53.06 23.05 60.22 20.75 55.18 25.48 50.16 25.26 49.07"/><path class="cls-8" d="M28.64,53.3s7.87,1.55,9,2.45S41.49,70,41.49,70H21.73Z"/><path class="cls-9" d="M25.89,44.37a11.28,11.28,0,0,0-.52,1.91,7.7,7.7,0,0,1-4.62,2,7.7,7.7,0,0,1-4.63-2,11.28,11.28,0,0,0-.52-1.91h0a8.09,8.09,0,0,0,5.13,2.49,8.1,8.1,0,0,0,5.12-2.49Z"/><path class="cls-4" d="M20.64,16.32c-11.21,0-12.07,11-11.56,15a9.13,9.13,0,0,0,1.82,3.88s.41-5.36,3.89-6.89,8.54-.7,11-4.41c2.89,4.39,4.17,6.24,4.74,11.3C33.73,31.8,36.27,16.43,20.64,16.32Z"/><path class="cls-10" d="M3.81,55.79V70H0S2.65,57,3.81,55.79Z"/><path class="cls-10" d="M37.69,55.79V70h3.8S38.84,57,37.69,55.79Z"/><rect class="cls-11" x="26.57" width="30.87" height="21" rx="1.76"/><path class="cls-12" d="M33.35,6.77H28.77V2.2h4.58Zm-3.7-.88h2.82V3.08H29.65Z"/><path class="cls-12" d="M33.35,12.65H28.77V8.07h4.58Zm-3.7-.88h2.82V9H29.65Z"/><path class="cls-12" d="M33.35,18.53H28.77V14h4.58Zm-3.7-.88h2.82V14.83H29.65Z"/><rect class="cls-12" x="34.92" y="4.96" width="20.05" height="1.37"/><rect class="cls-12" x="34.92" y="2.64" width="20.05" height="1.37"/><rect class="cls-12" x="34.92" y="10.84" width="20.05" height="1.37"/><rect class="cls-12" x="34.92" y="8.51" width="20.05" height="1.37"/><rect class="cls-12" x="34.92" y="16.71" width="20.05" height="1.37"/><rect class="cls-12" x="34.92" y="14.39" width="20.05" height="1.37"/><polygon class="cls-11" points="33.2 21 30.58 27.02 38.84 21 33.2 21"/></g></g></g></svg>