<svg xmlns="http://www.w3.org/2000/svg" viewBox="0 0 94.55 68.38"><defs><style>.cls-1{fill:#1a362f;}.cls-2{fill:#367564;}.cls-3{fill:#29594c;}.cls-4{fill:#93b025;}.cls-5{fill:#1e4037;}.cls-6{fill:#e6ff85;}.cls-7{fill:#2b2b2b;}.cls-8{fill:#d24d57;}.cls-9{fill:#b3b3b3;}.cls-10{fill:#374369;}.cls-11{fill:#e08931;}.cls-12{opacity:0.3;}.cls-13{fill:#ff4d4d;}.cls-14{fill:#fff;}.cls-15{fill:#ab3434;}.cls-16{fill:#122621;}.cls-17{fill:#a1aab5;}.cls-18{fill:#cad94e;}.cls-19{fill:#5dcde9;}</style></defs><g id="Layer_2" data-name="Layer 2"><g id="Layer_6" data-name="Layer 6"><path class="cls-1" d="M87.68,68.38H7a6.92,6.92,0,0,1-7-6.79H0l94.55.09v-.17A6.88,6.88,0,0,1,87.68,68.38Z"/><rect class="cls-2" x="9.87" y="4.43" width="74.8" height="44.37"/><rect class="cls-3" x="9.87" y="4.43" width="74.8" height="17.42"/><rect class="cls-4" x="12.52" y="7.57" width="69.5" height="35.09"/><rect class="cls-5" x="12.52" y="44.68" width="14.11" height="1.72"/><rect class="cls-6" x="17.16" y="18.02" width="18.67" height="22.45"/><rect class="cls-6" x="58.97" y="18.02" width="18.67" height="22.45"/><rect class="cls-6" x="37.94" y="18.02" width="18.67" height="22.45"/><polygon class="cls-7" points="21.26 21.1 21.9 25.45 21.9 36.32 26.49 36.32 26.51 36.32 31.09 36.32 31.1 25.45 31.73 21.1 21.26 21.1"/><rect class="cls-8" x="21.9" y="35.95" width="9.19" height="0.37"/><polygon class="cls-8" points="32.52 27.79 31.08 25.45 31.72 21.1 35.03 26.56 32.52 27.79"/><polygon class="cls-8" points="20.47 27.79 21.91 25.45 21.27 21.1 17.96 26.55 20.47 27.79"/><path class="cls-9" d="M26.49,22.78c-1,0-1.76-.39-1.76-.84s.8-.84,1.76-.84,1.76.38,1.76.84S27.45,22.78,26.49,22.78Z"/><path class="cls-8" d="M26.49,21.18c1,0,1.68.4,1.68.76s-.69.75-1.68.75-1.68-.4-1.68-.75.69-.76,1.68-.76Zm0-.17c-1,0-1.85.42-1.85.93s.83.92,1.85.92,1.85-.41,1.85-.92S27.51,21,26.49,21Z"/><path class="cls-8" d="M28.55,27.18a2.06,2.06,0,1,1-2.06-2.06A2.06,2.06,0,0,1,28.55,27.18Z"/><polygon class="cls-10" points="42.04 21.1 42.68 25.45 42.67 36.32 47.26 36.32 47.28 36.32 51.87 36.32 51.87 25.45 52.51 21.1 42.04 21.1"/><rect class="cls-11" x="42.67" y="35.95" width="9.19" height="0.37"/><polygon class="cls-11" points="53.3 27.79 51.86 25.45 52.5 21.1 55.8 26.56 53.3 27.79"/><polygon class="cls-11" points="41.24 27.79 42.69 25.45 42.05 21.1 38.74 26.55 41.24 27.79"/><path class="cls-9" d="M47.27,22.78c-1,0-1.77-.39-1.77-.84s.81-.84,1.77-.84,1.76.38,1.76.84S48.22,22.78,47.27,22.78Z"/><path class="cls-11" d="M47.27,21.18c1,0,1.67.4,1.67.76s-.69.75-1.67.75-1.68-.4-1.68-.75.69-.76,1.68-.76Zm0-.17c-1,0-1.85.42-1.85.93s.82.92,1.85.92,1.84-.41,1.84-.92S48.29,21,47.27,21Z"/><polygon class="cls-8" points="62.66 21.1 63.3 25.45 63.3 36.32 67.89 36.32 67.91 36.32 72.49 36.32 72.5 25.45 73.13 21.1 62.66 21.1"/><rect class="cls-10" x="63.3" y="35.95" width="9.19" height="0.37"/><polygon class="cls-10" points="73.92 27.79 72.48 25.45 73.12 21.1 76.43 26.56 73.92 27.79"/><polygon class="cls-10" points="61.87 27.79 63.31 25.45 62.67 21.1 59.36 26.55 61.87 27.79"/><path class="cls-9" d="M67.89,22.78c-1,0-1.76-.39-1.76-.84s.8-.84,1.76-.84,1.76.38,1.76.84S68.84,22.78,67.89,22.78Z"/><path class="cls-10" d="M67.89,21.18c1,0,1.68.4,1.68.76s-.69.75-1.68.75-1.68-.4-1.68-.75.69-.76,1.68-.76Zm0-.17c-1,0-1.85.42-1.85.93s.83.92,1.85.92,1.85-.41,1.85-.92S68.91,21,67.89,21Z"/><rect class="cls-12" x="12.52" y="7.57" width="69.5" height="14.28"/><polygon class="cls-13" points="88.64 13.03 5.9 13.03 9.87 2.79 84.67 2.79 88.64 13.03"/><polygon class="cls-14" points="11.54 13.03 7.73 13.03 11.53 2.79 14.97 2.79 11.54 13.03"/><polygon class="cls-14" points="24.1 13.03 20.29 13.03 22.88 2.79 26.32 2.79 24.1 13.03"/><polygon class="cls-14" points="36.66 13.03 32.85 13.03 34.24 2.79 37.68 2.79 36.66 13.03"/><polygon class="cls-14" points="49.22 13.03 45.41 13.03 45.59 2.79 49.03 2.79 49.22 13.03"/><polygon class="cls-14" points="61.78 13.03 57.97 13.03 56.95 2.79 60.38 2.79 61.78 13.03"/><polygon class="cls-14" points="74.34 13.03 70.53 13.03 68.3 2.79 71.74 2.79 74.34 13.03"/><polygon class="cls-14" points="86.9 13.03 83.09 13.03 79.65 2.79 83.09 2.79 86.9 13.03"/><path class="cls-14" d="M19,16.21H12.86a1.27,1.27,0,0,1-1.27-1.27V13h8.7v1.91A1.27,1.27,0,0,1,19,16.21Z"/><path class="cls-13" d="M10.67,16.21h-2a.93.93,0,0,1-.93-.92V13h3.86v2.26A.92.92,0,0,1,10.67,16.21Z"/><path class="cls-14" d="M31.58,16.21H25.42a1.27,1.27,0,0,1-1.27-1.27V13h8.7v1.91A1.27,1.27,0,0,1,31.58,16.21Z"/><path class="cls-13" d="M23.23,16.21h-2a.93.93,0,0,1-.93-.92V13h3.86v2.26A.92.92,0,0,1,23.23,16.21Z"/><path class="cls-14" d="M44.14,16.21H38a1.27,1.27,0,0,1-1.27-1.27V13h8.7v1.91A1.27,1.27,0,0,1,44.14,16.21Z"/><path class="cls-13" d="M35.79,16.21h-2a.93.93,0,0,1-.93-.92V13h3.86v2.26A.92.92,0,0,1,35.79,16.21Z"/><path class="cls-14" d="M56.7,16.21H50.54a1.27,1.27,0,0,1-1.27-1.27V13H58v1.91A1.27,1.27,0,0,1,56.7,16.21Z"/><path class="cls-13" d="M48.35,16.21h-2a.93.93,0,0,1-.93-.92V13h3.86v2.26A.92.92,0,0,1,48.35,16.21Z"/><path class="cls-14" d="M69.26,16.21H63.1a1.27,1.27,0,0,1-1.27-1.27V13h8.7v1.91A1.27,1.27,0,0,1,69.26,16.21Z"/><path class="cls-13" d="M60.91,16.21h-2a.93.93,0,0,1-.93-.92V13h3.86v2.26A.92.92,0,0,1,60.91,16.21Z"/><path class="cls-14" d="M81.82,16.21H75.66a1.27,1.27,0,0,1-1.27-1.27V13h8.7v1.91A1.27,1.27,0,0,1,81.82,16.21Z"/><path class="cls-13" d="M73.47,16.21h-2a.93.93,0,0,1-.93-.92V13h3.86v2.26A.92.92,0,0,1,73.47,16.21Z"/><path class="cls-13" d="M86,16.21H84a.93.93,0,0,1-.93-.92V13H87v2.26A.92.92,0,0,1,86,16.21Z"/><rect class="cls-15" x="9.87" width="74.8" height="2.79"/><polygon points="62.87 39.14 63.54 38.29 59.77 34.52 62.11 32.96 53.62 29.89 56.69 38.38 58.25 36.04 62.02 39.81 62.87 39.14"/><path class="cls-3" d="M91.34,62.67H3.21c-2.29,0-3.66-.61-3.08-1.36L9.87,48.8h74.8l9.74,12.52C95,62.05,93.62,62.67,91.34,62.67Z"/><polygon class="cls-16" points="14.16 50.34 11.33 50.34 11.77 49.73 14.56 49.73 14.16 50.34"/><polygon class="cls-16" points="29.91 50.34 15.99 50.34 16.38 49.73 30.13 49.73 29.91 50.34"/><polygon class="cls-16" points="46.2 50.34 32.28 50.34 32.47 49.73 46.22 49.73 46.2 50.34"/><polygon class="cls-16" points="62.39 50.34 48.47 50.34 48.45 49.73 62.2 49.73 62.39 50.34"/><polygon class="cls-16" points="73.26 50.34 63.56 50.34 63.36 49.73 72.94 49.73 73.26 50.34"/><polygon class="cls-16" points="13.41 51.47 10.52 51.47 11.06 50.72 13.91 50.72 13.41 51.47"/><polygon class="cls-16" points="16.96 51.47 14.06 51.47 14.55 50.72 17.4 50.72 16.96 51.47"/><polygon class="cls-16" points="20.5 51.47 17.61 51.47 18.05 50.72 20.9 50.72 20.5 51.47"/><polygon class="cls-16" points="24.18 51.47 21.29 51.47 21.67 50.72 24.52 50.72 24.18 51.47"/><polygon class="cls-16" points="27.82 51.47 24.93 51.47 25.26 50.72 28.11 50.72 27.82 51.47"/><polygon class="cls-16" points="31.42 51.47 28.53 51.47 28.8 50.72 31.65 50.72 31.42 51.47"/><polygon class="cls-16" points="48.72 51.47 45.83 51.47 45.85 50.72 48.7 50.72 48.72 51.47"/><polygon class="cls-16" points="62.73 51.47 56.05 51.47 55.92 50.72 62.5 50.72 62.73 51.47"/><polygon class="cls-16" points="16.42 52.36 16.89 51.59 10.43 51.59 9.87 52.36 16.42 52.36"/><polygon class="cls-16" points="20.03 52.36 17.09 52.36 17.54 51.59 20.44 51.59 20.03 52.36"/><polygon class="cls-16" points="23.78 52.36 20.83 52.36 21.23 51.59 24.13 51.59 23.78 52.36"/><polygon class="cls-16" points="27.48 52.36 24.54 52.36 24.88 51.59 27.78 51.59 27.48 52.36"/><polygon class="cls-16" points="31.14 52.36 28.2 52.36 28.48 51.59 31.38 51.59 31.14 52.36"/><polygon class="cls-16" points="48.75 52.36 45.8 52.36 45.83 51.59 48.72 51.59 48.75 52.36"/><polygon class="cls-16" points="15.87 53.28 16.35 52.48 9.78 52.48 9.2 53.28 15.87 53.28"/><polygon class="cls-16" points="19.55 53.28 16.55 53.28 17.02 52.48 19.97 52.48 19.55 53.28"/><polygon class="cls-16" points="23.36 53.28 20.36 53.28 20.77 52.48 23.72 52.48 23.36 53.28"/><polygon class="cls-16" points="27.13 53.28 24.13 53.28 24.48 52.48 27.43 52.48 27.13 53.28"/><polygon class="cls-16" points="30.85 53.28 27.86 53.28 28.15 52.48 31.1 52.48 30.85 53.28"/><polygon class="cls-16" points="48.77 53.28 45.78 53.28 45.8 52.48 48.75 52.48 48.77 53.28"/><polygon class="cls-16" points="63 52.36 62.77 51.59 56.07 51.59 56.2 52.36 59.86 52.36 60.09 53.28 63.28 53.28 63 52.36 63 52.36"/><polygon class="cls-16" points="14.37 54.24 14.88 53.41 9.11 53.41 8.51 54.24 14.37 54.24"/><polygon class="cls-16" points="19.04 54.24 15.99 54.24 16.48 53.41 19.48 53.41 19.04 54.24"/><polygon class="cls-16" points="22.92 54.24 19.87 54.24 20.3 53.41 23.3 53.41 22.92 54.24"/><polygon class="cls-16" points="26.76 54.24 23.71 54.24 24.08 53.41 27.08 53.41 26.76 54.24"/><polygon class="cls-16" points="30.55 54.24 27.5 54.24 27.81 53.41 30.81 53.41 30.55 54.24"/><polygon class="cls-16" points="34.93 51.47 32.04 51.47 32.27 50.72 35.12 50.72 34.93 51.47"/><polygon class="cls-16" points="34.72 52.36 31.77 52.36 32.01 51.59 34.91 51.59 34.72 52.36"/><polygon class="cls-16" points="34.49 53.28 31.5 53.28 31.74 52.48 34.69 52.48 34.49 53.28"/><polygon class="cls-16" points="34.26 54.24 31.21 54.24 31.46 53.41 34.46 53.41 34.26 54.24"/><polygon class="cls-16" points="38.38 51.47 35.49 51.47 35.66 50.72 38.51 50.72 38.38 51.47"/><polygon class="cls-16" points="38.22 52.36 35.28 52.36 35.46 51.59 38.36 51.59 38.22 52.36"/><polygon class="cls-16" points="38.06 53.28 35.07 53.28 35.25 52.48 38.2 52.48 38.06 53.28"/><polygon class="cls-16" points="37.89 54.24 34.84 54.24 35.04 53.41 38.04 53.41 37.89 54.24"/><polygon class="cls-16" points="41.93 51.47 39.04 51.47 39.16 50.72 42.01 50.72 41.93 51.47"/><polygon class="cls-16" points="41.83 52.36 38.89 52.36 39.02 51.59 41.91 51.59 41.83 52.36"/><polygon class="cls-16" points="41.74 53.28 38.74 53.28 38.87 52.48 41.82 52.48 41.74 53.28"/><polygon class="cls-16" points="41.64 54.24 38.59 54.24 38.72 53.41 41.72 53.41 41.64 54.24"/><polygon class="cls-16" points="45.34 51.47 42.45 51.47 42.52 50.72 45.37 50.72 45.34 51.47"/><polygon class="cls-16" points="45.31 52.36 42.37 52.36 42.44 51.59 45.34 51.59 45.31 52.36"/><polygon class="cls-16" points="45.27 53.28 42.28 53.28 42.35 52.48 45.3 52.48 45.27 53.28"/><polygon class="cls-16" points="45.24 54.24 42.19 54.24 42.27 53.41 45.27 53.41 45.24 54.24"/><polygon class="cls-16" points="48.8 54.24 45.75 54.24 45.77 53.41 48.77 53.41 48.8 54.24"/><polygon class="cls-16" points="63.58 54.24 56.53 54.24 56.38 53.41 63.32 53.41 63.58 54.24"/><polygon class="cls-16" points="10.89 55.23 7.79 55.23 8.41 54.37 11.47 54.37 10.89 55.23"/><polygon class="cls-16" points="14.71 55.23 11.6 55.23 12.16 54.37 15.22 54.37 14.71 55.23"/><polygon class="cls-16" points="34.02 55.23 15.41 55.23 15.91 54.37 34.23 54.37 34.02 55.23"/><polygon class="cls-16" points="41.53 55.23 38.43 55.23 38.56 54.37 41.62 54.37 41.53 55.23"/><polygon class="cls-16" points="37.72 55.23 34.61 55.23 34.81 54.37 37.87 54.37 37.72 55.23"/><polygon class="cls-16" points="56.2 60.01 36.97 60.01 37.63 56.2 55.63 56.2 56.2 60.01"/><path class="cls-17" d="M53.3,61H39.85c-1.69,0-3-.44-2.88-1H56.2C56.29,60.55,55,61,53.3,61Z"/><polygon class="cls-16" points="45.2 55.23 42.09 55.23 42.18 54.37 45.23 54.37 45.2 55.23"/><polygon class="cls-16" points="48.83 55.23 45.72 55.23 45.75 54.37 48.8 54.37 48.83 55.23"/><polygon class="cls-16" points="52.09 51.47 49.2 51.47 49.17 50.72 52.02 50.72 52.09 51.47"/><polygon class="cls-16" points="52.17 52.36 49.23 52.36 49.2 51.59 52.1 51.59 52.17 52.36"/><polygon class="cls-16" points="52.26 53.28 49.27 53.28 49.23 52.48 52.18 52.48 52.26 53.28"/><polygon class="cls-16" points="52.35 54.24 49.3 54.24 49.27 53.41 52.27 53.41 52.35 54.24"/><polygon class="cls-16" points="52.45 55.23 49.34 55.23 49.31 54.37 52.36 54.37 52.45 55.23"/><polygon class="cls-16" points="55.47 51.47 52.58 51.47 52.5 50.72 55.34 50.72 55.47 51.47"/><polygon class="cls-16" points="66.82 51.47 63.93 51.47 63.68 50.72 66.53 50.72 66.82 51.47"/><polygon class="cls-16" points="70.33 51.47 67.44 51.47 67.15 50.72 70 50.72 70.33 51.47"/><polygon class="cls-16" points="73.85 51.47 70.96 51.47 70.61 50.72 73.46 50.72 73.85 51.47"/><polygon class="cls-16" points="67.16 52.36 64.22 52.36 63.97 51.59 66.86 51.59 67.16 52.36"/><polygon class="cls-16" points="70.74 52.36 67.8 52.36 67.49 51.59 70.39 51.59 70.74 52.36"/><polygon class="cls-16" points="74.32 52.36 71.38 52.36 71.02 51.59 73.91 51.59 74.32 52.36"/><polygon class="cls-16" points="77.79 51.47 74.9 51.47 74.49 50.72 77.34 50.72 77.79 51.47"/><polygon class="cls-16" points="81.31 51.47 78.42 51.47 77.96 50.72 80.81 50.72 81.31 51.47"/><polygon class="cls-16" points="84.83 51.47 81.93 51.47 81.42 50.72 84.27 50.72 84.83 51.47"/><polygon class="cls-16" points="78.33 52.36 75.39 52.36 74.96 51.59 77.86 51.59 78.33 52.36"/><polygon class="cls-16" points="81.91 52.36 78.96 52.36 78.49 51.59 81.39 51.59 81.91 52.36"/><polygon class="cls-16" points="78.89 53.3 75.9 53.3 75.46 52.5 78.41 52.5 78.89 53.3"/><polygon class="cls-16" points="82.54 53.3 79.54 53.3 79.05 52.5 82 52.5 82.54 53.3"/><polygon class="cls-16" points="84.91 51.59 82.01 51.59 83.19 53.3 86.18 53.3 84.91 51.59"/><polygon class="cls-16" points="79.47 54.26 76.42 54.26 75.97 53.42 78.97 53.42 79.47 54.26"/><polygon class="cls-16" points="83.18 54.26 80.13 54.26 79.62 53.42 82.62 53.42 83.18 54.26"/><polygon class="cls-16" points="71.6 54.24 68.55 54.24 68.22 53.41 71.22 53.41 71.6 54.24"/><polygon class="cls-16" points="68.27 55.23 65.16 55.23 64.88 54.37 67.94 54.37 68.27 55.23"/><polygon class="cls-16" points="72.05 55.23 68.94 55.23 68.6 54.37 71.66 54.37 72.05 55.23"/><polygon class="cls-16" points="75.83 55.23 72.72 55.23 72.32 54.37 75.37 54.37 75.83 55.23"/><polygon class="cls-16" points="83.83 55.23 83.26 54.37 76.48 54.37 76.95 55.23 83.83 55.23"/><polygon class="cls-16" points="86.27 53.42 83.27 53.42 84.51 55.23 87.61 55.23 86.27 53.42"/><polygon class="cls-16" points="55.61 52.36 52.67 52.36 52.59 51.59 55.48 51.59 55.61 52.36"/><polygon class="cls-16" points="55.76 53.28 52.76 53.28 52.68 52.48 55.63 52.48 55.76 53.28"/><polygon class="cls-16" points="59.36 53.28 56.36 53.28 56.23 52.48 59.17 52.48 59.36 53.28"/><polygon class="cls-16" points="55.91 54.24 52.86 54.24 52.78 53.41 55.78 53.41 55.91 54.24"/><polygon class="cls-16" points="56.07 55.23 52.97 55.23 52.88 54.37 55.93 54.37 56.07 55.23"/><polygon class="cls-16" points="59.81 55.23 56.7 55.23 56.55 54.37 59.61 54.37 59.81 55.23"/><polygon class="cls-16" points="63.88 55.23 60.29 55.23 60.08 54.37 63.61 54.37 63.88 55.23"/><polygon class="cls-16" points="81.29 49.84 76.13 49.84 76.07 49.73 81.22 49.73 81.29 49.84"/><polygon class="cls-16" points="81.46 50.09 76.28 50.09 76.21 49.98 81.39 49.98 81.46 50.09"/><polygon class="cls-16" points="81.64 50.34 76.42 50.34 76.36 50.23 81.57 50.23 81.64 50.34"/><polygon class="cls-4" points="79.18 49.84 78.24 49.84 78.18 49.73 79.11 49.73 79.18 49.84"/><polygon class="cls-18" points="84.16 60.82 78.31 60.82 77.64 59.52 83.36 59.52 84.16 60.82"/><polygon class="cls-19" points="91.25 60.82 85.4 60.82 84.57 59.52 90.3 59.52 91.25 60.82"/></g></g></svg>