<svg xmlns="http://www.w3.org/2000/svg" viewBox="0 0 65 60.78"><defs><style>.cls-1{isolation:isolate;}.cls-2{fill:#eee;}.cls-3{fill:#505050;}.cls-4{fill:#007896;}.cls-5{fill:#f9bf3b;}.cls-6,.cls-7{fill:#ffe1c3;}.cls-7{mix-blend-mode:screen;}.cls-12,.cls-7{opacity:0.2;}.cls-8{fill:#cc5525;}.cls-9{fill:#ffdcb9;}.cls-10{fill:#e6e6e6;}.cls-11{fill:#f0f0f0;}.cls-12{fill:#ffc8af;mix-blend-mode:multiply;}.cls-13{fill:#0082a0;}</style></defs><g class="cls-1"><g id="Layer_2" data-name="Layer 2"><g id="Layer_1-2" data-name="Layer 1"><rect class="cls-2" x="21.39" y="3.42" width="42.81" height="36.29"/><path class="cls-3" d="M64.2,4.21H20.88a.8.8,0,1,1,0-1.59H64.2a.8.8,0,1,1,0,1.59Z"/><rect class="cls-4" x="26.28" y="32.3" width="2.65" height="3.41"/><rect class="cls-4" x="29.96" y="25.49" width="2.65" height="10.22"/><rect class="cls-4" x="33.64" y="22.08" width="2.65" height="13.62"/><rect class="cls-4" x="37.32" y="15.27" width="2.65" height="20.44"/><rect class="cls-4" x="41.01" y="18.68" width="2.65" height="17.03"/><rect class="cls-4" x="44.69" y="28.89" width="2.65" height="6.81"/><rect class="cls-4" x="48.37" y="25.49" width="2.65" height="10.22"/><rect class="cls-4" x="52.05" y="15.27" width="2.65" height="20.44"/><rect class="cls-5" x="55.74" y="11.86" width="2.65" height="23.84"/><path class="cls-3" d="M58.9,36.1H25.36V8.46a.4.4,0,0,1,.8,0V35.31H58.9a.39.39,0,0,1,.4.39A.4.4,0,0,1,58.9,36.1Z"/><path class="cls-6" d="M21.92,36.32c3.08,0,8.84-3.57,10.73-13.22S30.07,7.3,21.92,7.3,9.29,13.46,11.18,23.1,18.84,36.32,21.92,36.32Z"/><path class="cls-6" d="M11.18,23.1c-.11-.56-.19-1.12-.26-1.66-.49-.68-1-1.13-1.63-1-1.14.31-1.44,1.24-.25,4.07s2.14,3.89,2.84,3.58a1.29,1.29,0,0,0,.51-.81A24.73,24.73,0,0,1,11.18,23.1Z"/><path class="cls-6" d="M32.64,23.1c.11-.56.19-1.12.26-1.66.48-.68,1-1.13,1.62-1,1.15.31,1.45,1.24.25,4.07s-2.13,3.89-2.83,3.58a1.26,1.26,0,0,1-.51-.81A25.68,25.68,0,0,0,32.64,23.1Z"/><path class="cls-7" d="M32.65,23.1c1.89-9.64-2.58-15.8-10.73-15.8v29C25,36.32,30.76,32.75,32.65,23.1Z"/><path class="cls-8" d="M21.92,4.55A16.29,16.29,0,0,1,28.31,5.8a3.19,3.19,0,0,0,.27-1.25C28.58,2,25.6,0,21.92,0s-6.66,2-6.66,4.55a3.18,3.18,0,0,0,.26,1.25A16.31,16.31,0,0,1,21.92,4.55Z"/><path class="cls-9" d="M28.13,42.19c-1.39,2.73-6.21,4.27-6.21,4.27s-4.82-1.54-6.21-4.27A7.94,7.94,0,0,0,17,35.72a12.15,12.15,0,0,0-.54-2h0a8.57,8.57,0,0,0,5.42,2.63,8.55,8.55,0,0,0,5.41-2.63h0a11.07,11.07,0,0,0-.54,2A7.87,7.87,0,0,0,28.13,42.19Z"/><polygon class="cls-10" points="11.47 43.58 19.66 60.78 24.83 60.78 31.73 43.44 30.26 43.14 21.92 45.12 13.57 43.14 11.47 43.58"/><polygon class="cls-11" points="17.14 38.67 15.95 38.91 13.37 42.88 19.48 50.44 21.92 45.12 16.92 39.82 17.14 38.67"/><path class="cls-4" d="M20.88,60.77H0S2.8,47,4,45.77c0,0,0,0,.05-.05,1.19-.95,9.5-2.58,9.5-2.58Z"/><polygon class="cls-11" points="26.69 38.67 27.88 38.91 30.47 42.88 24.35 50.44 21.92 45.12 26.92 39.82 26.69 38.67"/><path class="cls-4" d="M30.26,43.14s8.31,1.63,9.5,2.58,4.08,15.06,4.08,15.06H23Z"/><path class="cls-12" d="M27.35,33.7a11.07,11.07,0,0,0-.54,2,8.16,8.16,0,0,1-4.89,2.14A8.13,8.13,0,0,1,17,35.72a12.15,12.15,0,0,0-.54-2h0a8.57,8.57,0,0,0,5.42,2.63,8.55,8.55,0,0,0,5.41-2.63Z"/><path class="cls-8" d="M21.8,4.06C10,4.06,9.05,15.67,9.59,19.86A9.63,9.63,0,0,0,11.52,24s.43-5.66,4.1-7.27,9-.75,11.63-4.67c3.05,4.64,4.4,6.59,5,11.94C35.63,20.42,38.32,4.19,21.8,4.06Z"/><path class="cls-13" d="M4,45.77v15H0S2.8,47,4,45.77Z"/><path class="cls-13" d="M39.81,45.77v15h4S41,47,39.81,45.77Z"/></g></g></g></svg>