<svg xmlns="http://www.w3.org/2000/svg" viewBox="0 0 67.92 77.33"><defs><style>.cls-1{fill:#3f471f;}.cls-2{fill:#738239;}.cls-3{fill:#4b5425;}.cls-4{fill:#58632c;}.cls-5{fill:#51a692;}.cls-6{fill:#fff;}.cls-7{fill:#93b025;}.cls-8{fill:#596b17;}.cls-9{fill:#516114;}.cls-10{fill:#c9e077;}</style></defs><g id="Layer_2" data-name="Layer 2"><g id="Layer_5" data-name="Layer 5"><polygon class="cls-1" points="62.6 27.66 5.82 27.66 6.67 16.91 61.26 16.91 62.6 27.66"/><polygon class="cls-2" points="67.92 70.08 56.42 73.7 56.42 20.54 61.26 16.91 67.92 70.08"/><polygon class="cls-3" points="66.66 60.16 56.42 63.78 56.42 55.72 65.67 52.09 66.66 60.16"/><polygon class="cls-4" points="56.42 73.7 61.67 77.33 61.67 24.16 56.42 20.54 56.42 73.7"/><polygon class="cls-2" points="0 70.08 11.51 73.7 11.51 20.54 6.67 16.91 0 70.08"/><polygon class="cls-3" points="1.26 60.16 11.51 63.78 11.51 55.72 2.25 52.09 1.26 60.16"/><polygon class="cls-4" points="11.51 73.7 6.25 77.33 6.25 24.16 11.51 20.54 11.51 73.7"/><circle class="cls-5" cx="33.96" cy="21.06" r="21.06" transform="translate(5.66 49.27) rotate(-76.72)"/><path class="cls-6" d="M34,41a20,20,0,1,1,20-20A20,20,0,0,1,34,41ZM34,1.93A19.13,19.13,0,1,0,53.09,21.06,19.15,19.15,0,0,0,34,1.93Z"/><rect class="cls-6" x="33.54" y="1.5" width="0.85" height="39.11"/><rect class="cls-6" x="14.41" y="20.64" width="39.11" height="0.85"/><path class="cls-6" d="M34,41c-6,0-10.83-9-10.83-20S28,1.08,34,1.08s10.83,9,10.83,20S39.93,41,34,41ZM34,1.93c-5.5,0-10,8.58-10,19.13s4.48,19.13,10,19.13,10-8.58,10-19.13S39.47,1.93,34,1.93Z"/><path class="cls-6" d="M34.24,11.54A61.56,61.56,0,0,1,18.43,9.59l.24-.81a62.36,62.36,0,0,0,30.59,0l.22.82A58.5,58.5,0,0,1,34.24,11.54Z"/><path class="cls-6" d="M49.26,33.3a62.14,62.14,0,0,0-30.59,0l-.24-.81a63,63,0,0,1,31.05,0Z"/><polygon class="cls-7" points="63.51 77.33 4.42 77.33 6.25 24.16 61.67 24.16 63.51 77.33"/><polygon class="cls-8" points="63.15 66.88 4.78 66.88 5.06 58.57 62.86 58.57 63.15 66.88"/><path class="cls-9" d="M51.88,31.08a1.21,1.21,0,1,1-1.21-1.21A1.21,1.21,0,0,1,51.88,31.08Z"/><path class="cls-9" d="M23,31.08a1.21,1.21,0,1,1-1.21-1.21A1.21,1.21,0,0,1,23,31.08Z"/><path class="cls-10" d="M36.22,46a15,15,0,0,1-15-15,.5.5,0,0,1,.5-.5.5.5,0,0,1,.5.5,14,14,0,1,0,27.91,0,.5.5,0,0,1,.5-.5.5.5,0,0,1,.5.5A15,15,0,0,1,36.22,46Z"/></g></g></svg>