<svg xmlns="http://www.w3.org/2000/svg" viewBox="0 0 75.83 56.17"><defs><style>.cls-1{fill:#636363;}.cls-2{fill:#4a4a4a;}.cls-3{fill:#adadad;}.cls-4{fill:#3b3b3b;}.cls-5{fill:#242424;}.cls-6{fill:#b83535;}.cls-7{fill:#66554e;}.cls-8{fill:#3dbec9;}.cls-9{fill:#35a6b0;}.cls-10{fill:#262626;}.cls-11{fill:#4f4f4f;}.cls-12{opacity:0.3;}.cls-13{fill:#3d3d3d;}.cls-14{fill:gray;}.cls-15{fill:#333;}.cls-16{fill:#f5cb95;}.cls-17{fill:#bd9c73;}.cls-18{fill:#9c805f;}.cls-19{fill:#9c8469;}.cls-20{fill:#ebebeb;}.cls-21{fill:#424242;}.cls-22{fill:#9e9e9e;}.cls-23{fill:#a17a3c;}.cls-24{fill:#876632;}.cls-25{fill:#806130;}.cls-26{fill:#d1ad7f;}.cls-27{fill:#1c1c1c;}.cls-28{fill:#0f0f0f;}.cls-29{fill:#282828;}.cls-30{fill:#171717;}.cls-31{fill:#666;}.cls-32{fill:#fbb040;}.cls-33{fill:#0a0a0a;}.cls-34{fill:#a86f23;}.cls-35{fill:#4c668c;}.cls-36{fill:#5a79a6;}.cls-37{fill:#b07c2c;}.cls-38{fill:#dbb685;}</style></defs><g id="Layer_2" data-name="Layer 2"><g id="Layer_3" data-name="Layer 3"><rect class="cls-1" y="52.29" width="75.83" height="3.88"/><rect class="cls-2" y="54.23" width="75.83" height="1.94"/><rect class="cls-3" x="4.92" y="10.63" width="66.22" height="41.66"/><path class="cls-3" d="M71.14,10.63h0Z"/><rect class="cls-4" x="9.49" y="22.53" width="57.08" height="29.76"/><rect class="cls-5" x="9.49" y="22.53" width="57.08" height="12.2"/><rect class="cls-6" x="66.57" y="42.41" width="4.57" height="5.53"/><rect class="cls-6" x="4.92" y="42.41" width="4.57" height="5.53"/><rect class="cls-7" x="11.25" y="13.29" width="53.57" height="6.27"/><rect class="cls-8" x="11.91" y="14" width="5.39" height="4.84"/><polygon class="cls-9" points="11.9 14 11.9 18.84 17.29 18.84 11.9 14"/><rect class="cls-8" x="18.6" y="14" width="5.39" height="4.84"/><polygon class="cls-9" points="18.6 14 18.6 18.84 23.99 18.84 18.6 14"/><rect class="cls-8" x="25.3" y="14" width="5.39" height="4.84"/><polygon class="cls-9" points="25.3 14 25.3 18.84 30.68 18.84 25.3 14"/><rect class="cls-8" x="31.99" y="14" width="5.39" height="4.84"/><polygon class="cls-9" points="31.99 14 31.99 18.84 37.38 18.84 31.99 14"/><rect class="cls-8" x="38.69" y="14" width="5.39" height="4.84"/><polygon class="cls-9" points="38.69 14 38.69 18.84 44.08 18.84 38.69 14"/><rect class="cls-8" x="45.39" y="14" width="5.39" height="4.84"/><polygon class="cls-9" points="45.39 14 45.39 18.84 50.77 18.84 45.39 14"/><rect class="cls-8" x="52.08" y="14" width="5.39" height="4.84"/><polygon class="cls-9" points="52.08 14 52.08 18.84 57.47 18.84 52.08 14"/><rect class="cls-8" x="58.78" y="14" width="5.39" height="4.84"/><polygon class="cls-9" points="58.78 14 58.78 18.84 64.17 18.84 58.78 14"/><rect class="cls-10" x="8.01" y="21.5" width="59.95" height="1.91"/><rect class="cls-11" x="8.01" y="21.5" width="59.95" height="0.96"/><rect class="cls-12" x="4.92" y="10.63" width="66.22" height="5.31"/><rect class="cls-13" x="1.95" width="72.33" height="10.63"/><rect class="cls-14" x="71.03" width="0.58" height="10.63"/><rect class="cls-14" x="67.52" width="0.58" height="10.63"/><rect class="cls-14" x="64.02" width="0.58" height="10.63"/><rect class="cls-14" x="60.51" width="0.58" height="10.63"/><rect class="cls-14" x="57" width="0.58" height="10.63"/><rect class="cls-14" x="53.49" width="0.58" height="10.63"/><rect class="cls-14" x="49.99" width="0.58" height="10.63"/><rect class="cls-14" x="46.48" width="0.58" height="10.63"/><rect class="cls-14" x="42.97" width="0.58" height="10.63"/><rect class="cls-14" x="39.46" width="0.58" height="10.63"/><rect class="cls-14" x="35.96" width="0.58" height="10.63"/><rect class="cls-14" x="32.45" width="0.58" height="10.63"/><rect class="cls-14" x="28.94" width="0.58" height="10.63"/><rect class="cls-14" x="25.43" width="0.58" height="10.63"/><rect class="cls-14" x="21.93" width="0.58" height="10.63"/><rect class="cls-14" x="18.42" width="0.58" height="10.63"/><rect class="cls-14" x="14.91" width="0.58" height="10.63"/><rect class="cls-14" x="11.4" width="0.58" height="10.63"/><rect class="cls-14" x="8.22" width="0.58" height="10.63"/><rect class="cls-14" x="4.71" width="0.58" height="10.63"/><rect class="cls-1" x="9.49" y="23.41" width="57.08" height="6.62"/><rect class="cls-15" x="9.49" y="28.79" width="57.08" height="0.48"/><rect class="cls-15" x="9.49" y="27.52" width="57.08" height="0.48"/><rect class="cls-15" x="9.49" y="26.24" width="57.08" height="0.48"/><rect class="cls-15" x="9.49" y="24.96" width="57.08" height="0.48"/><rect class="cls-15" x="9.49" y="23.69" width="57.08" height="0.48"/><polygon class="cls-16" points="19.33 51.11 11.76 51.11 11.76 51.11 11.76 43.95 11.76 43.95 19.33 43.95 19.33 51.11 19.33 51.11"/><polygon class="cls-17" points="19.33 51.11 11.76 51.11 11.76 43.95 19.33 51.11"/><rect class="cls-18" x="14.96" y="43.94" width="1.15" height="2.18"/><rect class="cls-19" x="12.48" y="49.49" width="3.06" height="0.25"/><rect class="cls-19" x="12.48" y="49.95" width="3.06" height="0.25"/><rect class="cls-19" x="12.48" y="50.37" width="3.06" height="0.25"/><rect class="cls-20" x="12.13" y="44.94" width="2.54" height="1.13"/><rect class="cls-21" x="13.06" y="45.14" width="0.06" height="0.52"/><rect class="cls-21" x="12.45" y="45.14" width="0.06" height="0.52"/><rect class="cls-21" x="13.9" y="45.14" width="0.06" height="0.52"/><rect class="cls-21" x="14.06" y="45.14" width="0.06" height="0.52"/><rect class="cls-21" x="12.24" y="45.14" width="0.1" height="0.52"/><rect class="cls-21" x="12.89" y="45.14" width="0.1" height="0.52"/><rect class="cls-21" x="13.28" y="45.14" width="0.02" height="0.52"/><rect class="cls-21" x="12.69" y="45.14" width="0.02" height="0.52"/><rect class="cls-21" x="13.39" y="45.14" width="0.02" height="0.52"/><rect class="cls-21" x="13.48" y="45.14" width="0.02" height="0.52"/><rect class="cls-21" x="12.6" y="45.14" width="0.02" height="0.52"/><rect class="cls-21" x="13.78" y="45.14" width="0.02" height="0.52"/><rect class="cls-21" x="14.21" y="45.14" width="0.02" height="0.52"/><rect class="cls-21" x="13.18" y="45.14" width="0.03" height="0.52"/><rect class="cls-21" x="12.78" y="45.14" width="0.03" height="0.52"/><rect class="cls-21" x="13.58" y="45.14" width="0.1" height="0.52"/><rect class="cls-21" x="14.35" y="45.14" width="0.1" height="0.52"/><polygon class="cls-16" points="20.33 51.12 15.05 51.12 15.05 51.12 15.05 42.07 15.05 42.07 20.33 42.07 20.33 51.12 20.33 51.12"/><polygon class="cls-17" points="20.33 51.12 15.05 51.12 15.05 42.07 20.33 51.12"/><rect class="cls-18" x="17.15" y="42.06" width="1.08" height="2.03"/><rect class="cls-20" x="18.63" y="42.69" width="1.23" height="1.88"/><rect class="cls-22" x="18.75" y="42.93" width="0.94" height="0.17"/><rect class="cls-22" x="18.75" y="43.39" width="0.94" height="0.17"/><rect class="cls-22" x="18.75" y="43.85" width="0.94" height="0.17"/><rect class="cls-22" x="18.75" y="44.11" width="0.53" height="0.17"/><rect class="cls-19" x="18.58" y="49.26" width="1.08" height="0.23"/><rect class="cls-19" x="18.58" y="50.03" width="1.08" height="0.23"/><rect class="cls-19" x="18.58" y="50.43" width="1.08" height="0.23"/><rect class="cls-19" x="18.58" y="49.65" width="1.43" height="0.23"/><rect class="cls-20" x="15.34" y="44.44" width="2.02" height="0.89"/><rect class="cls-21" x="16.08" y="44.59" width="0.05" height="0.42"/><rect class="cls-21" x="15.59" y="44.59" width="0.05" height="0.42"/><rect class="cls-21" x="16.74" y="44.59" width="0.05" height="0.42"/><rect class="cls-21" x="16.87" y="44.59" width="0.05" height="0.42"/><rect class="cls-21" x="15.42" y="44.59" width="0.08" height="0.42"/><rect class="cls-21" x="15.94" y="44.59" width="0.08" height="0.42"/><rect class="cls-21" x="16.25" y="44.59" width="0.02" height="0.42"/><rect class="cls-21" x="15.78" y="44.59" width="0.02" height="0.42"/><rect class="cls-21" x="16.33" y="44.59" width="0.02" height="0.42"/><rect class="cls-21" x="16.41" y="44.59" width="0.02" height="0.42"/><rect class="cls-21" x="15.71" y="44.59" width="0.02" height="0.42"/><rect class="cls-21" x="16.64" y="44.59" width="0.02" height="0.42"/><rect class="cls-21" x="16.99" y="44.59" width="0.02" height="0.42"/><rect class="cls-21" x="16.17" y="44.59" width="0.02" height="0.42"/><rect class="cls-21" x="15.85" y="44.59" width="0.02" height="0.42"/><rect class="cls-21" x="16.49" y="44.59" width="0.08" height="0.42"/><rect class="cls-21" x="17.1" y="44.59" width="0.08" height="0.42"/><rect class="cls-23" x="11.09" y="52.08" width="12.39" height="0.16"/><rect class="cls-23" x="11.09" y="51.11" width="12.39" height="0.16"/><rect class="cls-23" x="11.28" y="51.27" width="0.72" height="0.82"/><rect class="cls-24" x="11.28" y="51.99" width="0.72" height="0.1"/><rect class="cls-25" x="11.28" y="51.27" width="0.72" height="0.41"/><rect class="cls-23" x="22.47" y="51.27" width="0.72" height="0.82"/><rect class="cls-25" x="22.47" y="51.27" width="0.72" height="0.41"/><rect class="cls-23" x="16.92" y="51.27" width="0.72" height="0.82"/><rect class="cls-25" x="16.92" y="51.27" width="0.72" height="0.41"/><rect class="cls-24" x="16.92" y="51.99" width="0.72" height="0.1"/><rect class="cls-24" x="22.47" y="51.99" width="0.72" height="0.1"/><polygon class="cls-16" points="17.45 51.11 12.68 51.11 12.68 51.11 12.68 46.58 12.68 46.58 17.45 46.58 17.45 51.11 17.45 51.11"/><polygon class="cls-26" points="17.45 51.11 12.68 51.11 12.68 46.58 17.45 51.11"/><rect class="cls-18" x="14.7" y="46.58" width="0.73" height="1.37"/><rect class="cls-20" x="13.02" y="47.09" width="1.37" height="1.27"/><rect class="cls-22" x="13.15" y="47.25" width="1.04" height="0.12"/><rect class="cls-22" x="13.15" y="47.57" width="1.04" height="0.12"/><rect class="cls-22" x="13.15" y="47.88" width="1.04" height="0.12"/><rect class="cls-22" x="13.15" y="48.05" width="0.59" height="0.12"/><rect class="cls-19" x="15.07" y="49.84" width="1.93" height="0.16"/><rect class="cls-19" x="15.07" y="50.37" width="1.93" height="0.16"/><rect class="cls-19" x="15.07" y="50.64" width="1.93" height="0.16"/><rect class="cls-19" x="15.07" y="50.11" width="0.97" height="0.16"/><rect class="cls-20" x="13.02" y="48.59" width="1.37" height="0.61"/><rect class="cls-21" x="13.52" y="48.7" width="0.03" height="0.28"/><rect class="cls-21" x="13.19" y="48.7" width="0.03" height="0.28"/><rect class="cls-21" x="13.97" y="48.7" width="0.03" height="0.28"/><rect class="cls-21" x="14.05" y="48.7" width="0.03" height="0.28"/><rect class="cls-21" x="13.07" y="48.7" width="0.05" height="0.28"/><rect class="cls-21" x="13.42" y="48.7" width="0.05" height="0.28"/><rect class="cls-21" x="13.64" y="48.7" width="0.01" height="0.28"/><rect class="cls-21" x="13.32" y="48.7" width="0.01" height="0.28"/><rect class="cls-21" x="13.69" y="48.7" width="0.01" height="0.28"/><rect class="cls-21" x="13.74" y="48.7" width="0.01" height="0.28"/><rect class="cls-21" x="13.27" y="48.7" width="0.01" height="0.28"/><rect class="cls-21" x="13.9" y="48.7" width="0.01" height="0.28"/><rect class="cls-21" x="14.13" y="48.7" width="0.01" height="0.28"/><rect class="cls-21" x="13.58" y="48.7" width="0.02" height="0.28"/><rect class="cls-21" x="13.37" y="48.7" width="0.02" height="0.28"/><rect class="cls-21" x="13.8" y="48.7" width="0.05" height="0.28"/><rect class="cls-21" x="14.21" y="48.7" width="0.05" height="0.28"/><polygon class="cls-16" points="22.79 51.13 18.76 51.13 18.76 51.13 18.76 47.31 18.76 47.31 22.79 47.31 22.79 51.13 22.79 51.13"/><polygon class="cls-26" points="22.79 51.13 18.76 51.13 18.76 47.31 22.79 51.13"/><rect class="cls-18" x="20.46" y="47.31" width="0.62" height="1.16"/><rect class="cls-20" x="19.04" y="47.74" width="1.15" height="1.07"/><rect class="cls-22" x="19.16" y="47.99" width="0.88" height="0.24"/><rect class="cls-22" x="19.16" y="48.33" width="0.5" height="0.24"/><rect class="cls-19" x="20.77" y="50.06" width="1.63" height="0.13"/><rect class="cls-19" x="20.77" y="50.51" width="1.63" height="0.13"/><rect class="cls-19" x="20.77" y="50.73" width="1.63" height="0.13"/><rect class="cls-19" x="20.77" y="50.29" width="0.82" height="0.13"/><rect class="cls-20" x="19.04" y="48.98" width="2.08" height="0.92"/><rect class="cls-21" x="19.81" y="49.14" width="0.05" height="0.43"/><rect class="cls-21" x="19.3" y="49.14" width="0.05" height="0.43"/><rect class="cls-21" x="20.49" y="49.14" width="0.05" height="0.43"/><rect class="cls-21" x="20.62" y="49.14" width="0.05" height="0.43"/><rect class="cls-21" x="19.13" y="49.14" width="0.08" height="0.43"/><rect class="cls-21" x="19.66" y="49.14" width="0.08" height="0.43"/><rect class="cls-21" x="19.99" y="49.14" width="0.02" height="0.43"/><rect class="cls-21" x="19.5" y="49.14" width="0.02" height="0.43"/><rect class="cls-21" x="20.07" y="49.14" width="0.02" height="0.43"/><rect class="cls-21" x="20.15" y="49.14" width="0.02" height="0.43"/><rect class="cls-21" x="19.43" y="49.14" width="0.02" height="0.43"/><rect class="cls-21" x="20.39" y="49.14" width="0.02" height="0.43"/><rect class="cls-21" x="20.75" y="49.14" width="0.02" height="0.43"/><rect class="cls-21" x="19.9" y="49.14" width="0.03" height="0.43"/><rect class="cls-21" x="19.58" y="49.14" width="0.03" height="0.43"/><rect class="cls-21" x="20.23" y="49.14" width="0.08" height="0.43"/><rect class="cls-21" x="20.86" y="49.14" width="0.08" height="0.43"/><polygon class="cls-16" points="22.13 47.31 19.04 47.31 19.04 47.31 19.04 44.39 19.04 44.39 22.13 44.39 22.13 47.31 22.13 47.31"/><polygon class="cls-26" points="22.13 47.31 19.04 47.31 19.04 44.39 22.13 47.31"/><rect class="cls-18" x="20.35" y="44.38" width="0.47" height="0.89"/><rect class="cls-20" x="19.26" y="44.71" width="0.88" height="0.82"/><rect class="cls-22" x="19.35" y="44.9" width="0.67" height="0.18"/><rect class="cls-22" x="19.35" y="45.17" width="0.38" height="0.18"/><rect class="cls-19" x="20.59" y="46.49" width="1.25" height="0.1"/><rect class="cls-19" x="20.59" y="46.83" width="1.25" height="0.1"/><rect class="cls-19" x="20.59" y="47" width="1.25" height="0.1"/><rect class="cls-19" x="20.59" y="46.66" width="0.62" height="0.1"/><rect class="cls-20" x="19.26" y="45.66" width="1.59" height="0.7"/><rect class="cls-21" x="19.85" y="45.79" width="0.04" height="0.33"/><rect class="cls-21" x="19.46" y="45.79" width="0.04" height="0.33"/><rect class="cls-21" x="20.37" y="45.79" width="0.04" height="0.33"/><rect class="cls-21" x="20.47" y="45.79" width="0.04" height="0.33"/><rect class="cls-21" x="19.33" y="45.79" width="0.06" height="0.33"/><rect class="cls-21" x="19.74" y="45.79" width="0.06" height="0.33"/><rect class="cls-21" x="19.98" y="45.79" width="0.02" height="0.33"/><rect class="cls-21" x="19.61" y="45.79" width="0.02" height="0.33"/><rect class="cls-21" x="20.05" y="45.79" width="0.02" height="0.33"/><rect class="cls-21" x="20.11" y="45.79" width="0.02" height="0.33"/><rect class="cls-21" x="19.56" y="45.79" width="0.02" height="0.33"/><rect class="cls-21" x="20.29" y="45.79" width="0.02" height="0.33"/><rect class="cls-21" x="20.56" y="45.79" width="0.02" height="0.33"/><rect class="cls-21" x="19.92" y="45.79" width="0.02" height="0.33"/><rect class="cls-21" x="19.67" y="45.79" width="0.02" height="0.33"/><rect class="cls-21" x="20.17" y="45.79" width="0.06" height="0.33"/><rect class="cls-21" x="20.65" y="45.79" width="0.06" height="0.33"/><polygon class="cls-16" points="61.04 51.12 55.77 51.12 55.77 51.12 55.77 42.07 55.77 42.07 61.04 42.07 61.04 51.12 61.04 51.12"/><polygon class="cls-17" points="61.04 51.12 55.77 51.12 55.77 42.07 61.04 51.12"/><rect class="cls-18" x="57.87" y="42.06" width="1.08" height="2.03"/><rect class="cls-20" x="59.35" y="42.69" width="1.23" height="1.88"/><rect class="cls-22" x="59.47" y="42.93" width="0.94" height="0.17"/><rect class="cls-22" x="59.47" y="43.39" width="0.94" height="0.17"/><rect class="cls-22" x="59.47" y="43.85" width="0.94" height="0.17"/><rect class="cls-22" x="59.47" y="44.11" width="0.53" height="0.17"/><rect class="cls-19" x="59.29" y="49.26" width="1.08" height="0.23"/><rect class="cls-19" x="59.29" y="50.03" width="1.08" height="0.23"/><rect class="cls-19" x="59.29" y="50.43" width="1.08" height="0.23"/><rect class="cls-19" x="59.29" y="49.65" width="1.43" height="0.23"/><rect class="cls-20" x="56.05" y="44.44" width="2.02" height="0.89"/><rect class="cls-21" x="56.79" y="44.59" width="0.05" height="0.42"/><rect class="cls-21" x="56.3" y="44.59" width="0.05" height="0.42"/><rect class="cls-21" x="57.45" y="44.59" width="0.05" height="0.42"/><rect class="cls-21" x="57.58" y="44.59" width="0.05" height="0.42"/><rect class="cls-21" x="56.14" y="44.59" width="0.08" height="0.42"/><rect class="cls-21" x="56.65" y="44.59" width="0.08" height="0.42"/><rect class="cls-21" x="56.97" y="44.59" width="0.02" height="0.42"/><rect class="cls-21" x="56.49" y="44.59" width="0.02" height="0.42"/><rect class="cls-21" x="57.05" y="44.59" width="0.02" height="0.42"/><rect class="cls-21" x="57.12" y="44.59" width="0.02" height="0.42"/><rect class="cls-21" x="56.42" y="44.59" width="0.02" height="0.42"/><rect class="cls-21" x="57.36" y="44.59" width="0.02" height="0.42"/><rect class="cls-21" x="57.7" y="44.59" width="0.02" height="0.42"/><rect class="cls-21" x="56.89" y="44.59" width="0.02" height="0.42"/><rect class="cls-21" x="56.57" y="44.59" width="0.02" height="0.42"/><rect class="cls-21" x="57.2" y="44.59" width="0.08" height="0.42"/><rect class="cls-21" x="57.81" y="44.59" width="0.08" height="0.42"/><rect class="cls-23" x="52.75" y="52.08" width="12.39" height="0.16"/><rect class="cls-23" x="52.75" y="51.11" width="12.39" height="0.16"/><rect class="cls-23" x="52.94" y="51.27" width="0.72" height="0.82"/><rect class="cls-24" x="52.94" y="51.99" width="0.72" height="0.1"/><rect class="cls-25" x="52.94" y="51.27" width="0.72" height="0.41"/><rect class="cls-23" x="64.13" y="51.27" width="0.72" height="0.82"/><rect class="cls-25" x="64.13" y="51.27" width="0.72" height="0.41"/><rect class="cls-23" x="58.59" y="51.27" width="0.72" height="0.82"/><rect class="cls-25" x="58.59" y="51.27" width="0.72" height="0.41"/><rect class="cls-24" x="58.59" y="51.99" width="0.72" height="0.1"/><rect class="cls-24" x="64.13" y="51.99" width="0.72" height="0.1"/><polygon class="cls-16" points="58.19 51.11 53.41 51.11 53.41 51.11 53.41 46.58 53.41 46.58 58.19 46.58 58.19 51.11 58.19 51.11"/><polygon class="cls-26" points="58.19 51.11 53.41 51.11 53.41 46.58 58.19 51.11"/><rect class="cls-18" x="55.43" y="46.58" width="0.73" height="1.37"/><rect class="cls-20" x="53.75" y="47.09" width="1.37" height="1.27"/><rect class="cls-22" x="53.88" y="47.25" width="1.04" height="0.12"/><rect class="cls-22" x="53.88" y="47.57" width="1.04" height="0.12"/><rect class="cls-22" x="53.88" y="47.88" width="1.04" height="0.12"/><rect class="cls-22" x="53.88" y="48.05" width="0.59" height="0.12"/><rect class="cls-19" x="55.8" y="49.84" width="1.93" height="0.16"/><rect class="cls-19" x="55.8" y="50.37" width="1.93" height="0.16"/><rect class="cls-19" x="55.8" y="50.64" width="1.93" height="0.16"/><rect class="cls-19" x="55.8" y="50.11" width="0.97" height="0.16"/><rect class="cls-20" x="53.75" y="48.59" width="1.37" height="0.61"/><rect class="cls-21" x="54.25" y="48.7" width="0.03" height="0.28"/><rect class="cls-21" x="53.92" y="48.7" width="0.03" height="0.28"/><rect class="cls-21" x="54.7" y="48.7" width="0.03" height="0.28"/><rect class="cls-21" x="54.79" y="48.7" width="0.03" height="0.28"/><rect class="cls-21" x="53.81" y="48.7" width="0.05" height="0.28"/><rect class="cls-21" x="54.16" y="48.7" width="0.05" height="0.28"/><rect class="cls-21" x="54.37" y="48.7" width="0.01" height="0.28"/><rect class="cls-21" x="54.05" y="48.7" width="0.01" height="0.28"/><rect class="cls-21" x="54.43" y="48.7" width="0.01" height="0.28"/><rect class="cls-21" x="54.48" y="48.7" width="0.01" height="0.28"/><rect class="cls-21" x="54" y="48.7" width="0.01" height="0.28"/><rect class="cls-21" x="54.64" y="48.7" width="0.01" height="0.28"/><rect class="cls-21" x="54.87" y="48.7" width="0.01" height="0.28"/><rect class="cls-21" x="54.32" y="48.7" width="0.02" height="0.28"/><rect class="cls-21" x="54.1" y="48.7" width="0.02" height="0.28"/><rect class="cls-21" x="54.53" y="48.7" width="0.05" height="0.28"/><rect class="cls-21" x="54.95" y="48.7" width="0.05" height="0.28"/><polygon class="cls-16" points="64.45 51.13 60.42 51.13 60.42 51.13 60.42 47.31 60.42 47.31 64.45 47.31 64.45 51.13 64.45 51.13"/><polygon class="cls-26" points="64.45 51.13 60.42 51.13 60.42 47.31 64.45 51.13"/><rect class="cls-18" x="62.13" y="47.31" width="0.62" height="1.16"/><rect class="cls-20" x="60.71" y="47.74" width="1.15" height="1.07"/><rect class="cls-22" x="60.82" y="47.99" width="0.88" height="0.24"/><rect class="cls-22" x="60.82" y="48.33" width="0.5" height="0.24"/><rect class="cls-19" x="62.44" y="50.06" width="1.63" height="0.13"/><rect class="cls-19" x="62.44" y="50.51" width="1.63" height="0.13"/><rect class="cls-19" x="62.44" y="50.73" width="1.63" height="0.13"/><rect class="cls-19" x="62.44" y="50.29" width="0.82" height="0.13"/><rect class="cls-20" x="60.71" y="48.98" width="2.08" height="0.92"/><rect class="cls-21" x="61.47" y="49.14" width="0.05" height="0.43"/><rect class="cls-21" x="60.97" y="49.14" width="0.05" height="0.43"/><rect class="cls-21" x="62.16" y="49.14" width="0.05" height="0.43"/><rect class="cls-21" x="62.29" y="49.14" width="0.05" height="0.43"/><rect class="cls-21" x="60.8" y="49.14" width="0.08" height="0.43"/><rect class="cls-21" x="61.33" y="49.14" width="0.08" height="0.43"/><rect class="cls-21" x="61.65" y="49.14" width="0.02" height="0.43"/><rect class="cls-21" x="61.16" y="49.14" width="0.02" height="0.43"/><rect class="cls-21" x="61.74" y="49.14" width="0.02" height="0.43"/><rect class="cls-21" x="61.81" y="49.14" width="0.02" height="0.43"/><rect class="cls-21" x="61.09" y="49.14" width="0.02" height="0.43"/><rect class="cls-21" x="62.06" y="49.14" width="0.02" height="0.43"/><rect class="cls-21" x="62.41" y="49.14" width="0.02" height="0.43"/><rect class="cls-21" x="61.57" y="49.14" width="0.03" height="0.43"/><rect class="cls-21" x="61.24" y="49.14" width="0.03" height="0.43"/><rect class="cls-21" x="61.9" y="49.14" width="0.08" height="0.43"/><rect class="cls-21" x="62.53" y="49.14" width="0.08" height="0.43"/><polygon class="cls-16" points="60.2 42.06 56.17 42.06 56.17 42.06 56.17 38.24 56.17 38.24 60.2 38.24 60.2 42.06 60.2 42.06"/><polygon class="cls-26" points="60.2 42.06 56.17 42.06 56.17 38.24 60.2 42.06"/><rect class="cls-18" x="57.88" y="38.23" width="0.62" height="1.16"/><rect class="cls-20" x="56.46" y="38.67" width="1.15" height="1.07"/><rect class="cls-22" x="56.57" y="38.91" width="0.88" height="0.24"/><rect class="cls-22" x="56.57" y="39.26" width="0.5" height="0.24"/><rect class="cls-19" x="58.19" y="40.99" width="1.63" height="0.13"/><rect class="cls-19" x="58.19" y="41.44" width="1.63" height="0.13"/><rect class="cls-19" x="58.19" y="41.66" width="1.63" height="0.13"/><rect class="cls-19" x="58.19" y="41.22" width="0.82" height="0.13"/><rect class="cls-20" x="56.46" y="39.91" width="2.08" height="0.92"/><rect class="cls-21" x="57.22" y="40.07" width="0.05" height="0.43"/><rect class="cls-21" x="56.72" y="40.07" width="0.05" height="0.43"/><rect class="cls-21" x="57.91" y="40.07" width="0.05" height="0.43"/><rect class="cls-21" x="58.04" y="40.07" width="0.05" height="0.43"/><rect class="cls-21" x="56.55" y="40.07" width="0.08" height="0.43"/><rect class="cls-21" x="57.08" y="40.07" width="0.08" height="0.43"/><rect class="cls-21" x="57.4" y="40.07" width="0.02" height="0.43"/><rect class="cls-21" x="56.92" y="40.07" width="0.02" height="0.43"/><rect class="cls-21" x="57.49" y="40.07" width="0.02" height="0.43"/><rect class="cls-21" x="57.56" y="40.07" width="0.02" height="0.43"/><rect class="cls-21" x="56.84" y="40.07" width="0.02" height="0.43"/><rect class="cls-21" x="57.81" y="40.07" width="0.02" height="0.43"/><rect class="cls-21" x="58.16" y="40.07" width="0.02" height="0.43"/><rect class="cls-21" x="57.32" y="40.07" width="0.03" height="0.43"/><rect class="cls-21" x="56.99" y="40.07" width="0.03" height="0.43"/><rect class="cls-21" x="57.65" y="40.07" width="0.08" height="0.43"/><rect class="cls-21" x="58.28" y="40.07" width="0.08" height="0.43"/><rect class="cls-27" x="42.17" y="44.88" width="2.17" height="1.76" rx="0.28" transform="translate(-0.05 0.05) rotate(-0.07)"/><polygon class="cls-28" points="35.41 49.72 35.84 49.72 36.27 46.58 35.41 46.58 35.41 49.72"/><polygon class="cls-29" points="35.76 50.83 38.94 50.83 38.94 48.84 35.96 48.84 35.76 50.83"/><polygon class="cls-29" points="41.74 50.82 44.51 50.82 44.51 50 41.95 50.01 41.74 50.82"/><path class="cls-30" d="M38.63,51a1.36,1.36,0,1,1-1.36-1.36A1.36,1.36,0,0,1,38.63,51Z"/><path class="cls-14" d="M38.21,51a.94.94,0,1,1-.94-.94A.94.94,0,0,1,38.21,51Z"/><path class="cls-31" d="M37.89,51a.61.61,0,0,1-.62.61.61.61,0,0,1-.61-.61.61.61,0,0,1,.61-.62A.62.62,0,0,1,37.89,51Z"/><path class="cls-32" d="M44.9,50.41l.23-3.31a1,1,0,0,0-1-1.06h-.61a1,1,0,0,1-1-1v-.7h-.65l-.18-2.05a1,1,0,0,0-1-.93H38.45a1,1,0,0,0-1,.79l-.84,3.44-.84.19v3.61c0,.21.17-.14.38-.13l1.91,0a.37.37,0,0,1,.33.2L39,50.78c.06.13.09.21.23.21h2.82l.2-.71,1.57,0,.42.73A.63.63,0,0,0,44.9,50.41Z"/><path class="cls-33" d="M44.51,51.27,44,50.16a.13.13,0,0,0-.13-.08H42.3a.13.13,0,0,0-.13.09l-.32,1.2H42a.16.16,0,0,0,.14-.1l.18-.84a.16.16,0,0,1,.14-.09h1.28a.15.15,0,0,1,.14.09l.32.74a.14.14,0,0,0,.13.09Z"/><path class="cls-33" d="M39.37,51l-.86-1.85a.21.21,0,0,0-.19-.13H36a.22.22,0,0,0-.2.14L35.32,51h.24a.23.23,0,0,0,.2-.14L36,49.59a.19.19,0,0,1,.2-.14h1.92a.21.21,0,0,1,.19.13l.58,1.31a.21.21,0,0,0,.2.13Z"/><polygon class="cls-27" points="28.65 50.47 35.41 50.46 35.41 42.7 34.99 42.7 34.98 50.23 28.79 50.26 28.65 50.47"/><path class="cls-30" d="M44.12,51.36a.94.94,0,1,1-.94-.93A.94.94,0,0,1,44.12,51.36Z"/><path class="cls-14" d="M43.83,51.37a.65.65,0,1,1-.65-.65A.65.65,0,0,1,43.83,51.37Z"/><path class="cls-31" d="M43.6,51.37a.42.42,0,1,1-.42-.43A.42.42,0,0,1,43.6,51.37Z"/><path class="cls-34" d="M37.94,48.91h2.23a.25.25,0,0,0,.24-.18L41,45c.05-.16,0-2.22,0-2.9a.21.21,0,0,0-.22-.21H38.34a.12.12,0,0,0-.11.09c-.12.52-.73,3.1-.73,3.21l.17,3.51A.26.26,0,0,0,37.94,48.91Z"/><path class="cls-35" d="M40.54,42.19H38.62a.23.23,0,0,0-.21.16l-.54,2.57a.23.23,0,0,0,.24.29l2.46-.3a.24.24,0,0,0,.2-.23V42.42A.22.22,0,0,0,40.54,42.19Z"/><path class="cls-36" d="M40.54,42.19H38.62l2,2.72a.24.24,0,0,0,.2-.23V42.42A.22.22,0,0,0,40.54,42.19Z"/><path class="cls-35" d="M38,47.12l2.32-.24a.12.12,0,0,0,.1-.07l.24-1.27a.1.1,0,0,0-.11-.13L38,45.77a.09.09,0,0,0-.09.1V47A.1.1,0,0,0,38,47.12Z"/><path class="cls-36" d="M40.35,46.88a.12.12,0,0,0,.1-.07l.24-1.27a.1.1,0,0,0-.11-.13l-1.37.19Z"/><path class="cls-28" d="M44.3,50.05l.81-.08a.17.17,0,0,0,.17-.16l0-.51a.17.17,0,0,0-.17-.19h-.87a.18.18,0,0,0-.17.18v.58A.17.17,0,0,0,44.3,50.05Z"/><polygon class="cls-37" points="40.77 48.25 45.05 48.24 45.11 47.4 40.93 47.41 40.77 48.25"/><polygon class="cls-37" points="35.8 48.25 37.34 48.25 37.27 47.41 35.8 47.41 35.8 48.25"/><path class="cls-21" d="M39.81,47.37h.54a.11.11,0,0,0,.12-.11v0a.12.12,0,0,0-.12-.12h-.54a.12.12,0,0,0-.12.12v0A.11.11,0,0,0,39.81,47.37Z"/><polygon class="cls-16" points="29.97 50.24 34.69 50.24 34.69 45.77 34.69 45.77 29.97 45.77 29.97 50.24 29.97 50.24"/><polygon class="cls-38" points="29.97 50.24 34.69 50.24 29.97 45.77 29.97 50.24 29.97 50.24"/><rect class="cls-18" x="31.97" y="45.76" width="0.72" height="1.36" transform="matrix(1, 0, 0, 1, -0.05, 0.04)"/><rect class="cls-20" x="33" y="46.27" width="1.35" height="2.66" rx="0.17"/><rect class="cls-22" x="33.19" y="46.43" width="1.03" height="0.23"/><rect class="cls-22" x="33.49" y="46.75" width="0.74" height="1.41"/><rect class="cls-19" x="30.42" y="48.99" width="1.91" height="0.15" transform="translate(-0.05 0.03) rotate(-0.06)"/><rect class="cls-19" x="30.42" y="49.51" width="1.91" height="0.15"/><rect class="cls-19" x="30.42" y="49.78" width="1.91" height="0.15"/><rect class="cls-19" x="31.37" y="49.26" width="0.96" height="0.15"/><rect class="cls-20" x="30.28" y="47.79" width="2.08" height="0.92"/><rect class="cls-21" x="31.04" y="47.95" width="0.05" height="0.43"/><rect class="cls-21" x="30.53" y="47.95" width="0.05" height="0.43"/><rect class="cls-21" x="31.72" y="47.95" width="0.05" height="0.43"/><rect class="cls-21" x="31.86" y="47.95" width="0.05" height="0.43"/><rect class="cls-21" x="30.36" y="47.95" width="0.08" height="0.43"/><rect class="cls-21" x="30.9" y="47.95" width="0.08" height="0.43"/><rect class="cls-21" x="31.22" y="47.95" width="0.02" height="0.43"/><rect class="cls-21" x="30.73" y="47.95" width="0.02" height="0.43"/><rect class="cls-21" x="31.3" y="47.95" width="0.02" height="0.43"/><rect class="cls-21" x="31.38" y="47.95" width="0.02" height="0.43"/><rect class="cls-21" x="30.66" y="47.95" width="0.02" height="0.43"/><rect class="cls-21" x="31.63" y="47.95" width="0.02" height="0.43"/><rect class="cls-21" x="31.98" y="47.95" width="0.02" height="0.43"/><rect class="cls-21" x="31.14" y="47.95" width="0.03" height="0.43"/><rect class="cls-21" x="30.81" y="47.95" width="0.03" height="0.43"/><rect class="cls-21" x="31.46" y="47.95" width="0.08" height="0.43"/><rect class="cls-21" x="32.1" y="47.95" width="0.08" height="0.43"/><polygon class="cls-16" points="30.87 45.77 33.48 45.76 33.48 45.76 33.48 43.29 33.48 43.29 30.87 43.29 30.87 45.76 30.87 45.77"/><polygon class="cls-38" points="30.87 45.77 33.48 45.76 33.48 45.76 30.87 43.29 30.87 45.76 30.87 45.77"/><rect class="cls-18" x="31.98" y="43.28" width="0.4" height="0.75" transform="translate(-0.05 0.04) rotate(-0.07)"/><rect class="cls-19" x="31.12" y="45.07" width="1.06" height="0.08" transform="translate(-0.05 0.03) rotate(-0.06)"/><rect class="cls-19" x="31.12" y="45.36" width="1.06" height="0.08"/><rect class="cls-19" x="31.12" y="45.51" width="1.06" height="0.08" transform="matrix(1, 0, 0, 1, -0.05, 0.03)"/><rect class="cls-19" x="31.65" y="45.22" width="0.53" height="0.08"/><rect class="cls-20" x="31.1" y="44.21" width="1.24" height="0.55"/><rect class="cls-21" x="31.55" y="44.3" width="0.03" height="0.26"/><rect class="cls-21" x="31.25" y="44.3" width="0.03" height="0.26"/><rect class="cls-21" x="31.96" y="44.3" width="0.03" height="0.26"/><rect class="cls-21" x="32.04" y="44.3" width="0.03" height="0.26"/><rect class="cls-21" x="31.15" y="44.3" width="0.05" height="0.26"/><rect class="cls-21" x="31.47" y="44.3" width="0.05" height="0.26"/><rect class="cls-21" x="31.66" y="44.3" width="0.01" height="0.26"/><rect class="cls-21" x="31.37" y="44.3" width="0.01" height="0.26"/><rect class="cls-21" x="31.71" y="44.3" width="0.01" height="0.26"/><rect class="cls-21" x="31.75" y="44.3" width="0.01" height="0.26"/><rect class="cls-21" x="31.32" y="44.3" width="0.01" height="0.26"/><rect class="cls-21" x="31.9" y="44.3" width="0.01" height="0.26"/><rect class="cls-21" x="32.11" y="44.3" width="0.01" height="0.26"/><rect class="cls-21" x="31.61" y="44.3" width="0.02" height="0.26"/><rect class="cls-21" x="31.41" y="44.3" width="0.02" height="0.26"/><rect class="cls-21" x="31.8" y="44.3" width="0.05" height="0.26"/><rect class="cls-21" x="32.18" y="44.3" width="0.05" height="0.26"/></g></g></svg>