<svg xmlns="http://www.w3.org/2000/svg" viewBox="0 0 54.75 70.69"><defs><style>.cls-1{fill:#382b40;}.cls-2{fill:#3b8496;}.cls-3{fill:#b0e1ff;}.cls-4{fill:#2cd4bb;}.cls-5{fill:gray;}.cls-6{fill:#fff;}.cls-7{fill:#3b3b3b;}.cls-8{fill:#f2f2f2;}.cls-9{fill:#e55345;}.cls-10{fill:#1d414a;}.cls-11{fill:#2b606e;}.cls-12{fill:#34e358;}.cls-13{fill:#7c49e3;}.cls-14{fill:#2b5de3;}.cls-15{fill:#c24343;}</style></defs><g id="Layer_2" data-name="Layer 2"><g id="Layer_3" data-name="Layer 3"><rect class="cls-1" width="54.75" height="70.69" rx="9.13"/><rect class="cls-2" x="5.21" y="6" width="44.33" height="54.69"/><rect class="cls-3" x="8.96" y="9.31" width="19.96" height="24.62"/><path class="cls-4" d="M28.54,3.17A1.17,1.17,0,1,1,27.38,2,1.16,1.16,0,0,1,28.54,3.17Z"/><rect class="cls-5" x="23.42" y="62.77" width="7.9" height="5.84" rx="1.32"/><path class="cls-6" d="M28.93,67.67H25.82a1,1,0,0,1-1-1v-1.9a1,1,0,0,1,1-1h3.11a1,1,0,0,1,1,1v1.9A1,1,0,0,1,28.93,67.67Zm-3.11-3.46a.53.53,0,0,0-.53.53v1.9a.53.53,0,0,0,.53.53h3.11a.53.53,0,0,0,.53-.53v-1.9a.53.53,0,0,0-.53-.53Z"/><path class="cls-7" d="M18.43,20.59V28a1.86,1.86,0,1,1-3.72,0,.5.5,0,0,0-1,0,2.86,2.86,0,1,0,5.71,0V20.59Z"/><path class="cls-8" d="M18.94,12.38h0s-5.56,2.12-5.56,8.21H24.23A9,9,0,0,0,18.94,12.38Z"/><path class="cls-9" d="M18.94,12.38h0s-2,2.12-2,8.21h4C20.9,14.5,18.94,12.38,18.94,12.38Z"/><path class="cls-9" d="M18.94,12.38a8.29,8.29,0,0,0-8.3,8.21h2.74C13.38,14.5,18.94,12.38,18.94,12.38Z"/><path class="cls-9" d="M18.94,12.38h0a9,9,0,0,1,5.29,8.21h3A8.29,8.29,0,0,0,18.94,12.38Z"/><rect class="cls-10" x="8.96" y="35.35" width="37.46" height="1.49"/><rect class="cls-3" x="30.5" y="9.31" width="13.83" height="1.94"/><rect class="cls-3" x="30.5" y="13.31" width="13.83" height="1.94"/><rect class="cls-3" x="30.5" y="17.31" width="13.83" height="1.94"/><rect class="cls-3" x="30.5" y="31.99" width="14.92" height="1.94"/><rect class="cls-3" x="30.5" y="21.31" width="9.75" height="1.94"/><rect class="cls-3" x="30.45" y="24.79" width="10.1" height="5.81" rx="0.38"/><rect class="cls-11" x="31.03" y="25.17" width="8.94" height="5.14" rx="0.33"/><path class="cls-6" d="M33.39,26.6a2.37,2.37,0,0,1,.49,0,.8.8,0,0,1,.57.16.54.54,0,0,1-.15.89v0a.52.52,0,0,1,.4.53.59.59,0,0,1-.17.44.93.93,0,0,1-.74.23,2.17,2.17,0,0,1-.4,0Zm.44.89h.09a.29.29,0,0,0,.27-.32c0-.16-.07-.29-.25-.29l-.11,0Zm0,1h.09a.31.31,0,0,0,.32-.34.32.32,0,0,0-.32-.34h-.09Z"/><path class="cls-6" d="M35.42,26.57V28c0,.33.1.43.21.43s.22-.09.22-.43V26.57h.43V28c0,.57-.21.89-.65.89S35,28.51,35,28V26.57Z"/><path class="cls-6" d="M36.91,28.81V28l-.5-1.38h.47l.15.53c0,.15.09.31.12.48h0a4.26,4.26,0,0,1,.1-.49l.13-.52h.45l-.5,1.37v.87Z"/><rect class="cls-12" x="12.19" y="39" width="9" height="9"/><rect class="cls-3" x="12.19" y="49.75" width="9" height="9"/><rect class="cls-3" x="23.19" y="39" width="9" height="9"/><rect class="cls-13" x="23.19" y="49.75" width="9" height="9"/><rect class="cls-14" x="34.19" y="39" width="9" height="9"/><rect class="cls-15" x="34.19" y="49.75" width="9" height="9"/></g></g></svg>