<?xml version="1.0" ?><!-- Uploaded to: SVG Repo, www.svgrepo.com, Generator: SVG Repo Mixer Tools -->
<svg width="800px" height="800px" viewBox="0 0 32 32" id="OBJECT" xmlns="http://www.w3.org/2000/svg"><defs><style>.cls-1{fill:#b2b2b2;}</style></defs><title/><path class="cls-1" d="M8,23H6a5,5,0,0,0-5,5v2a1,1,0,0,0,1,1H12a1,1,0,0,0,1-1V28A5,5,0,0,0,8,23Z"/><path class="cls-1" d="M26,23H24a5,5,0,0,0-5,5v2a1,1,0,0,0,1,1H30a1,1,0,0,0,1-1V28A5,5,0,0,0,26,23Z"/><circle cx="7" cy="21.5" r="3.5"/><circle cx="25" cy="21.5" r="3.5"/><path d="M17,21H15a5,5,0,0,0-5,5v5H22V26A5,5,0,0,0,17,21Z"/><rect class="cls-1" height="12" rx="2" ry="2" width="18" x="7" y="1"/><circle class="cls-1" cx="16" cy="19" r="4"/><path d="M12.25,8h-.5a1,1,0,0,1,0-2h.5a1,1,0,0,1,0,2Z"/><path d="M16.25,8h-.5a1,1,0,0,1,0-2h.5a1,1,0,0,1,0,2Z"/><path d="M20.25,8h-.5a1,1,0,0,1,0-2h.5a1,1,0,0,1,0,2Z"/></svg>